<svg width="50" height="50" viewBox="0 0 50 50" fill="none" xmlns="http://www.w3.org/2000/svg">
<rect width="50" height="50" rx="10" fill="#9DE2D4"/>
<path d="M30.3872 23.3089L37.6481 23.3L37.6542 28.2579L30.3933 28.2667L30.3872 23.3089Z" fill="#39A790"/>
<path d="M38.8801 30.0848H27.3644V24.63C27.3647 24.5246 27.3375 24.421 27.2855 24.3294C27.2336 24.2377 27.1586 24.1612 27.0681 24.1074C26.9775 24.0535 26.8745 24.0242 26.7692 24.0223C26.6638 24.0204 26.5598 24.046 26.4674 24.0966L20.0913 27.5513V24.63C20.0919 24.5254 20.0655 24.4224 20.0145 24.331C19.9635 24.2397 19.8898 24.1631 19.8004 24.1087C19.712 24.0577 19.6116 24.0308 19.5095 24.0308C19.4074 24.0308 19.307 24.0577 19.2186 24.1087L11.3394 28.0241C11.2374 28.074 11.1515 28.1517 11.0915 28.2481C11.0315 28.3446 10.9998 28.4559 11 28.5695V37.9639C11 38.1247 11.0639 38.2788 11.1775 38.3925C11.2912 38.5062 11.4453 38.57 11.6061 38.57H15.8487C16.0095 38.57 16.1636 38.5062 16.2773 38.3925C16.3909 38.2788 16.4548 38.1247 16.4548 37.9639V33.7213C16.4411 33.5771 16.484 33.4332 16.5745 33.32C16.665 33.2069 16.796 33.1335 16.9397 33.1152H21.449C21.5927 33.1335 21.7237 33.2069 21.8142 33.32C21.9047 33.4332 21.9476 33.5771 21.9338 33.7213V37.9639C21.9338 38.1247 21.9977 38.2788 22.1114 38.3925C22.225 38.5062 22.3792 38.57 22.5399 38.57H38.8801C39.0408 38.57 39.195 38.5062 39.3087 38.3925C39.4223 38.2788 39.4862 38.1247 39.4862 37.9639V30.6909C39.4862 30.5301 39.4223 30.3759 39.3087 30.2623C39.195 30.1486 39.0408 30.0848 38.8801 30.0848ZM30.3948 35.2365H29.1827C28.9416 35.2365 28.7103 35.1407 28.5398 34.9702C28.3693 34.7997 28.2735 34.5685 28.2735 34.3274C28.2735 34.0863 28.3693 33.855 28.5398 33.6845C28.7103 33.514 28.9416 33.4183 29.1827 33.4183H30.3948C30.636 33.4183 30.8672 33.514 31.0377 33.6845C31.2082 33.855 31.304 34.0863 31.304 34.3274C31.304 34.5685 31.2082 34.7997 31.0377 34.9702C30.8672 35.1407 30.636 35.2365 30.3948 35.2365ZM35.2436 35.2365H34.0314C33.7903 35.2365 33.559 35.1407 33.3885 34.9702C33.218 34.7997 33.1222 34.5685 33.1222 34.3274C33.1222 34.0863 33.218 33.855 33.3885 33.6845C33.559 33.514 33.7903 33.4183 34.0314 33.4183H35.2436C35.4847 33.4183 35.7159 33.514 35.8864 33.6845C36.0569 33.855 36.1527 34.0863 36.1527 34.3274C36.1527 34.5685 36.0569 34.7997 35.8864 34.9702C35.7159 35.1407 35.4847 35.2365 35.2436 35.2365Z" fill="#39A790"/>
<path d="M37.668 13.7203C37.6693 12.8615 37.3666 12.03 36.8135 11.373C36.2605 10.716 35.4927 10.2759 34.6463 10.1307C33.7998 9.98553 32.9293 10.1446 32.1889 10.5797C31.4485 11.0149 30.886 11.698 30.601 12.5082H22.8188V14.9325H30.601C30.8029 15.4946 31.1401 15.9984 31.5829 16.3992L30.6859 21.4904H37.365L36.4558 16.3992C36.8333 16.0617 37.136 15.6491 37.3448 15.1878C37.5535 14.7265 37.6636 14.2266 37.668 13.7203ZM34.0315 12.5082C34.2712 12.5082 34.5056 12.5792 34.7049 12.7124C34.9043 12.8456 35.0597 13.035 35.1514 13.2564C35.2431 13.4779 35.2672 13.7217 35.2204 13.9568C35.1736 14.192 35.0582 14.4079 34.8886 14.5775C34.7191 14.747 34.5031 14.8624 34.268 14.9092C34.0328 14.956 33.7891 14.932 33.5676 14.8402C33.3461 14.7485 33.1568 14.5931 33.0236 14.3938C32.8904 14.1944 32.8193 13.9601 32.8193 13.7203C32.8193 13.3988 32.947 13.0905 33.1744 12.8632C33.4017 12.6359 33.71 12.5082 34.0315 12.5082Z" fill="#39A790"/>
<path d="M24.3704 19.9873C24.5037 19.8549 24.6073 19.6956 24.6742 19.52C24.741 19.3445 24.7697 19.1566 24.7583 18.9691C24.7507 18.7811 24.7024 18.5969 24.6165 18.4295C24.5307 18.262 24.4095 18.1153 24.2613 17.9993L21.0005 15.3932V12.4597C21.0057 12.1035 20.9323 11.7505 20.7856 11.4258C20.6389 11.1012 20.4224 10.8129 20.1516 10.5814C19.8807 10.35 19.5622 10.181 19.2187 10.0866C18.8752 9.99225 18.5151 9.97473 18.164 10.0353C17.5784 10.1556 17.0545 10.48 16.686 10.9507C16.3174 11.4214 16.1281 12.0078 16.1518 12.6051V15.3932L12.891 17.9993C12.7428 18.1153 12.6216 18.262 12.5358 18.4295C12.4499 18.5969 12.4016 18.7811 12.394 18.9691C12.3793 19.1569 12.4064 19.3457 12.4735 19.5218C12.5406 19.6979 12.6459 19.8569 12.7819 19.9873L14.782 21.9874C15.0374 22.2026 15.3643 22.3142 15.698 22.3C16.0317 22.2858 16.348 22.1468 16.5841 21.9106C16.8203 21.6745 16.9593 21.3582 16.9735 21.0245C16.9877 20.6908 16.8761 20.3639 16.6609 20.1085L15.7154 19.163L17.9701 17.3569H19.1822L21.4369 19.163L20.4914 20.1085C20.2761 20.3639 20.1646 20.6908 20.1788 21.0245C20.193 21.3582 20.332 21.6745 20.5682 21.9106C20.8043 22.1468 21.1206 22.2858 21.4543 22.3C21.788 22.3142 22.1149 22.2026 22.3703 21.9874L24.3704 19.9873Z" fill="#39A790"/>
</svg>
