<svg width="50" height="50" viewBox="0 0 50 50" fill="none" xmlns="http://www.w3.org/2000/svg">
<rect width="50" height="50" rx="10" fill="#4474D7" fill-opacity="0.55"/>
<path d="M17.125 23.8335C16.8939 23.8365 16.6731 23.9297 16.5097 24.0931C16.3462 24.2566 16.253 24.4774 16.25 24.7085V25.0002C16.25 25.1549 16.1886 25.3033 16.0792 25.4127C15.9698 25.5221 15.8214 25.5835 15.6667 25.5835H15.375C15.1429 25.5835 14.9204 25.6757 14.7563 25.8398C14.5922 26.0039 14.5 26.2265 14.5 26.4585C14.5 26.6906 14.5922 26.9132 14.7563 27.0773C14.9204 27.2414 15.1429 27.3336 15.375 27.3336H15.6667C15.8214 27.3336 15.9698 27.395 16.0792 27.5044C16.1886 27.6138 16.25 27.7622 16.25 27.9169V28.2086C16.25 28.4406 16.3422 28.6632 16.5063 28.8273C16.6704 28.9914 16.893 29.0836 17.125 29.0836C17.3571 29.0836 17.5797 28.9914 17.7438 28.8273C17.9079 28.6632 18.0001 28.4406 18.0001 28.2086V27.9169C18.0001 27.7622 18.0615 27.6138 18.1709 27.5044C18.2803 27.395 18.4287 27.3336 18.5834 27.3336H18.8751C19.1071 27.3336 19.3297 27.2414 19.4938 27.0773C19.6579 26.9132 19.7501 26.6906 19.7501 26.4585C19.7501 26.2265 19.6579 26.0039 19.4938 25.8398C19.3297 25.6757 19.1071 25.5835 18.8751 25.5835H18.5834C18.4287 25.5835 18.2803 25.5221 18.1709 25.4127C18.0615 25.3033 18.0001 25.1549 18.0001 25.0002V24.7085C17.997 24.4774 17.9039 24.2566 17.7404 24.0931C17.577 23.9297 17.3562 23.8365 17.125 23.8335Z" fill="#4474D7"/>
<path d="M36.3756 34.3338H36.0839C35.9292 34.3338 35.7808 34.2723 35.6714 34.1629C35.562 34.0535 35.5005 33.9051 35.5005 33.7504V33.4588C35.5005 33.2267 35.4084 33.0041 35.2443 32.84C35.0802 32.6759 34.8576 32.5837 34.6255 32.5837C34.3935 32.5837 34.1709 32.6759 34.0068 32.84C33.8427 33.0041 33.7505 33.2267 33.7505 33.4588V33.7504C33.7505 33.9051 33.6891 34.0535 33.5797 34.1629C33.4703 34.2723 33.3219 34.3338 33.1672 34.3338H32.8755C32.6434 34.3338 32.4209 34.426 32.2568 34.5901C32.0927 34.7541 32.0005 34.9767 32.0005 35.2088C32.0005 35.4408 32.0927 35.6634 32.2568 35.8275C32.4209 35.9916 32.6434 36.0838 32.8755 36.0838H33.1672C33.3219 36.0838 33.4703 36.1453 33.5797 36.2547C33.6891 36.3641 33.7505 36.5124 33.7505 36.6671V36.9588C33.7505 37.1909 33.8427 37.4134 34.0068 37.5775C34.1709 37.7416 34.3935 37.8338 34.6255 37.8338C34.8576 37.8338 35.0802 37.7416 35.2443 37.5775C35.4084 37.4134 35.5005 37.1909 35.5005 36.9588V36.6671C35.5005 36.5124 35.562 36.3641 35.6714 36.2547C35.7808 36.1453 35.9292 36.0838 36.0839 36.0838H36.3756C36.6076 36.0838 36.8302 35.9916 36.9943 35.8275C37.1584 35.6634 37.2506 35.4408 37.2506 35.2088C37.2506 34.9767 37.1584 34.7541 36.9943 34.5901C36.8302 34.426 36.6076 34.3338 36.3756 34.3338Z" fill="#4474D7"/>
<path d="M28.792 15.0834H29.667C29.8217 15.0834 29.9701 15.1449 30.0795 15.2543C30.1889 15.3637 30.2504 15.512 30.2504 15.6667V16.5418C30.2504 16.7738 30.3426 16.9964 30.5066 17.1605C30.6707 17.3246 30.8933 17.4168 31.1254 17.4168C31.3574 17.4168 31.58 17.3246 31.7441 17.1605C31.9082 16.9964 32.0004 16.7738 32.0004 16.5418V15.6667C32.0004 15.512 32.0618 15.3637 32.1712 15.2543C32.2806 15.1449 32.429 15.0834 32.5837 15.0834H33.4587C33.6908 15.0834 33.9134 14.9912 34.0775 14.8271C34.2416 14.663 34.3338 14.4405 34.3338 14.2084C34.3338 13.9763 34.2416 13.7538 34.0775 13.5897C33.9134 13.4256 33.6908 13.3334 33.4587 13.3334H32.5837C32.429 13.3334 32.2806 13.2719 32.1712 13.1625C32.0618 13.0531 32.0004 12.9047 32.0004 12.75V11.875C32.0004 11.6429 31.9082 11.4204 31.7441 11.2563C31.58 11.0922 31.3574 11 31.1254 11C30.8933 11 30.6707 11.0922 30.5066 11.2563C30.3426 11.4204 30.2504 11.6429 30.2504 11.875V12.75C30.2504 12.9047 30.1889 13.0531 30.0795 13.1625C29.9701 13.2719 29.8217 13.3334 29.667 13.3334H28.792C28.5599 13.3334 28.3374 13.4256 28.1733 13.5897C28.0092 13.7538 27.917 13.9763 27.917 14.2084C27.917 14.4405 28.0092 14.663 28.1733 14.8271C28.3374 14.9912 28.5599 15.0834 28.792 15.0834Z" fill="#4474D7"/>
<path d="M33.0504 29.2937L37.2505 25.0936C37.4048 24.938 37.6146 24.8499 37.8338 24.8486C38.1432 24.8703 38.4486 24.7681 38.6827 24.5646C38.9168 24.3612 39.0605 24.073 39.0822 23.7636C39.1038 23.4542 39.0017 23.1488 38.7982 22.9147C38.5947 22.6806 38.3066 22.5369 37.9972 22.5152C23.9269 20.4969 13.0301 11.3734 12.9251 11.2801C12.8087 11.1805 12.6737 11.1048 12.528 11.0574C12.3824 11.0099 12.2288 10.9916 12.076 11.0035C11.9232 11.0155 11.7743 11.0573 11.6378 11.1268C11.5012 11.1963 11.3797 11.292 11.2801 11.4084C11.0789 11.6436 10.9795 11.949 11.0035 12.2575C11.0276 12.566 11.1732 12.8523 11.4084 13.0534C11.5367 13.1584 12.4468 13.9284 13.9984 15.0251C14.153 15.1323 14.2793 15.2753 14.3667 15.4419C14.454 15.6085 14.4998 15.7937 14.5001 15.9818V21.5819C14.5007 21.793 14.5585 21.9999 14.6674 22.1807C14.7763 22.3615 14.9322 22.5094 15.1185 22.6086C15.287 22.6995 15.4753 22.7476 15.6668 22.7486C15.8955 22.7468 16.1187 22.6778 16.3085 22.5502L20.8002 19.5519C20.9003 19.4774 21.0203 19.4343 21.1449 19.428C21.2695 19.4218 21.3932 19.4527 21.5002 19.5169C21.5805 19.5562 21.6507 19.6135 21.7053 19.6843C21.7599 19.7551 21.7975 19.8375 21.8152 19.9252L23.1103 26.4353C23.1426 26.6349 23.2263 26.8226 23.3532 26.9801C23.48 27.1376 23.6455 27.2594 23.8336 27.3337C24.0321 27.4015 24.2453 27.4145 24.4506 27.3714C24.6559 27.3283 24.8458 27.2306 25.0003 27.0886L29.4104 23.0753C29.4587 23.0281 29.5194 22.9955 29.5854 22.9811C29.6513 22.9666 29.72 22.971 29.7837 22.9936C29.8385 23.0121 29.8877 23.0443 29.9265 23.0872C29.9653 23.1301 29.9924 23.1822 30.0054 23.2386L31.0904 28.7103C31.1319 28.9171 31.2287 29.1087 31.3704 29.2649C31.5122 29.421 31.6936 29.5358 31.8954 29.597C32.0974 29.6552 32.3113 29.6577 32.5147 29.6043C32.718 29.5509 32.9031 29.4436 33.0504 29.2937Z" fill="#4474D7"/>
<path d="M28.1503 28.3487C23.0176 30.1708 17.6132 31.1097 12.1667 31.1254C11.8573 31.1254 11.5605 31.2484 11.3417 31.4672C11.1229 31.686 11 31.9827 11 32.2921C11 32.6016 11.1229 32.8983 11.3417 33.1171C11.5605 33.3359 11.8573 33.4588 12.1667 33.4588C12.2107 33.4565 12.2545 33.4661 12.2936 33.4867C12.3326 33.5072 12.3653 33.5379 12.3884 33.5755L16.0867 38.5339C16.213 38.7021 16.3824 38.833 16.577 38.9129C16.7716 38.9927 16.9842 39.0184 17.1922 38.9873C17.4002 38.9562 17.5959 38.8695 17.7587 38.7363C17.9215 38.6031 18.0452 38.4283 18.1168 38.2306L19.9835 33.0038C20.0111 32.933 20.0591 32.8719 20.1214 32.8283C20.1837 32.7847 20.2575 32.7605 20.3335 32.7588C20.3916 32.7479 20.4516 32.753 20.5071 32.7735C20.5626 32.7941 20.6115 32.8293 20.6485 32.8755L24.4519 37.5422C24.5828 37.7033 24.7543 37.8266 24.9487 37.8994C25.1431 37.9721 25.3534 37.9916 25.5579 37.956C25.7624 37.9203 25.9537 37.8307 26.112 37.6964C26.2703 37.5622 26.39 37.3881 26.4586 37.1922L28.7919 30.8221C28.8066 30.7679 28.8346 30.7181 28.8733 30.6774C28.912 30.6367 28.9602 30.6062 29.0136 30.5888C29.2987 30.4744 29.5272 30.2523 29.6495 29.9705C29.7719 29.6887 29.7781 29.3701 29.667 29.0837C29.6186 28.9339 29.5403 28.7954 29.437 28.6766C29.3336 28.5578 29.2073 28.4611 29.0655 28.3924C28.9238 28.3237 28.7697 28.2845 28.6124 28.277C28.4551 28.2695 28.2979 28.2939 28.1503 28.3487Z" fill="#4474D7"/>
<path d="M34.917 19.1669C34.917 19.4764 35.0399 19.7731 35.2587 19.9919C35.4775 20.2107 35.7743 20.3336 36.0837 20.3336C36.3931 20.3336 36.6899 20.2107 36.9086 19.9919C37.1274 19.7731 37.2504 19.4764 37.2504 19.1669C37.2504 18.8575 37.1274 18.5608 36.9086 18.342C36.6899 18.1232 36.3931 18.0002 36.0837 18.0002C35.7743 18.0002 35.4775 18.1232 35.2587 18.342C35.0399 18.5608 34.917 18.8575 34.917 19.1669Z" fill="#4474D7"/>
<path d="M36.667 30.8337C36.667 31.1431 36.7899 31.4399 37.0087 31.6586C37.2275 31.8774 37.5243 32.0004 37.8337 32.0004C38.1431 32.0004 38.4399 31.8774 38.6586 31.6586C38.8774 31.4399 39.0004 31.1431 39.0004 30.8337C39.0004 30.5243 38.8774 30.2275 38.6586 30.0087C38.4399 29.7899 38.1431 29.667 37.8337 29.667C37.5243 29.667 37.2275 29.7899 37.0087 30.0087C36.7899 30.2275 36.667 30.5243 36.667 30.8337Z" fill="#4474D7"/>
</svg>
