<svg width="50" height="50" viewBox="0 0 50 50" fill="none" xmlns="http://www.w3.org/2000/svg">
<rect width="50" height="50" rx="10" fill="#FF0056" fill-opacity="0.35"/>
<g clip-path="url(#clip0_338_561)">
<path d="M21.7917 10H14.2083C13.8216 10 13.4506 10.1536 13.1771 10.4271C12.9036 10.7006 12.75 11.0716 12.75 11.4583V22.5417C12.75 22.7332 12.7877 22.9228 12.861 23.0997C12.9343 23.2767 13.0417 23.4374 13.1771 23.5729C13.3126 23.7083 13.4733 23.8157 13.6503 23.889C13.8272 23.9623 14.0168 24 14.2083 24H21.7917C21.9832 24 22.1728 23.9623 22.3497 23.889C22.5267 23.8157 22.6874 23.7083 22.8229 23.5729C22.9583 23.4374 23.0657 23.2767 23.139 23.0997C23.2123 22.9228 23.25 22.7332 23.25 22.5417V11.4583C23.25 11.0716 23.0964 10.7006 22.8229 10.4271C22.5494 10.1536 22.1784 10 21.7917 10ZM18 15.25C18.6922 15.25 19.3689 15.4553 19.9445 15.8399C20.5201 16.2244 20.9687 16.7711 21.2336 17.4106C21.4985 18.0501 21.5678 18.7539 21.4327 19.4328C21.2977 20.1117 20.9644 20.7354 20.4749 21.2249C19.9854 21.7144 19.3617 22.0477 18.6828 22.1827C18.0039 22.3178 17.3001 22.2485 16.6606 21.9836C16.0211 21.7187 15.4744 21.2701 15.0899 20.6945C14.7053 20.1189 14.5 19.4422 14.5 18.75C14.5 17.8217 14.8687 16.9315 15.5251 16.2751C16.1815 15.6187 17.0717 15.25 18 15.25ZM14.5 12.625C14.5 12.4703 14.5615 12.3219 14.6709 12.2125C14.7803 12.1031 14.9286 12.0417 15.0833 12.0417H16.5417C16.6964 12.0417 16.8447 12.1031 16.9541 12.2125C17.0635 12.3219 17.125 12.4703 17.125 12.625C17.125 12.7797 17.0635 12.9281 16.9541 13.0375C16.8447 13.1469 16.6964 13.2083 16.5417 13.2083H15.0833C14.9286 13.2083 14.7803 13.1469 14.6709 13.0375C14.5615 12.9281 14.5 12.7797 14.5 12.625ZM20.625 13.7917C20.3943 13.7917 20.1687 13.7232 19.9768 13.595C19.785 13.4669 19.6354 13.2846 19.5471 13.0715C19.4588 12.8583 19.4357 12.6237 19.4808 12.3974C19.5258 12.1711 19.6369 11.9632 19.8 11.8C19.9632 11.6369 20.1711 11.5258 20.3974 11.4808C20.6237 11.4357 20.8583 11.4588 21.0715 11.5471C21.2846 11.6354 21.4669 11.785 21.595 11.9768C21.7232 12.1687 21.7917 12.3943 21.7917 12.625C21.7917 12.9344 21.6687 13.2312 21.45 13.45C21.2312 13.6688 20.9344 13.7917 20.625 13.7917Z" fill="#FF0056"/>
<path d="M16.5359 18.7501C16.5359 19.1369 16.6895 19.5078 16.963 19.7813C17.2365 20.0548 17.6074 20.2084 17.9942 20.2084C18.381 20.2084 18.7519 20.0548 19.0254 19.7813C19.2989 19.5078 19.4526 19.1369 19.4526 18.7501C19.4526 18.3633 19.2989 17.9924 19.0254 17.7189C18.7519 17.4454 18.381 17.2917 17.9942 17.2917C17.6074 17.2917 17.2365 17.4454 16.963 17.7189C16.6895 17.9924 16.5359 18.3633 16.5359 18.7501Z" fill="#FF0056"/>
</g>
<g clip-path="url(#clip1_338_561)">
<path d="M39 17.5C38.9988 17.4201 38.9793 17.3416 38.9429 17.2705C38.9065 17.1994 38.8541 17.1376 38.79 17.09C38.7285 17.0386 38.6551 17.0035 38.5765 16.9877C38.4978 16.972 38.4166 16.9762 38.34 17L36.34 17.94L36.22 17.16C36.1412 16.8294 35.9533 16.5351 35.6865 16.3246C35.4198 16.1141 35.0898 15.9997 34.75 16H30C29.6022 16 29.2206 16.158 28.9393 16.4393C28.658 16.7206 28.5 17.1022 28.5 17.5V22.5C28.5 22.8978 28.658 23.2794 28.9393 23.5607C29.2206 23.842 29.6022 24 30 24H34.75C35.0939 23.9987 35.4271 23.88 35.6944 23.6637C35.9617 23.4473 36.1471 23.1461 36.22 22.81L36.34 22L38.34 22.94C38.4141 22.9679 38.494 22.977 38.5725 22.9666C38.6511 22.9561 38.7258 22.9264 38.79 22.88C38.8503 22.8355 38.9003 22.7786 38.9366 22.713C38.9728 22.6474 38.9944 22.5747 39 22.5V17.5Z" fill="#FF0056"/>
<path d="M34.5 27.25C34.4974 27.0519 34.4176 26.8626 34.2775 26.7225C34.1374 26.5824 33.9481 26.5026 33.75 26.5H28.75C28.5511 26.5 28.3603 26.579 28.2197 26.7197C28.079 26.8603 28 27.0511 28 27.25C28 27.4489 28.079 27.6397 28.2197 27.7803C28.3603 27.921 28.5511 28 28.75 28H33.75C33.9481 27.9974 34.1374 27.9176 34.2775 27.7775C34.4176 27.6374 34.4974 27.4481 34.5 27.25Z" fill="#FF0056"/>
<path d="M20.75 28C20.9489 28 21.1397 27.921 21.2803 27.7803C21.421 27.6397 21.5 27.4489 21.5 27.25C21.5 27.0511 21.421 26.8603 21.2803 26.7197C21.1397 26.579 20.9489 26.5 20.75 26.5H15.75C15.5511 26.5 15.3603 26.579 15.2197 26.7197C15.079 26.8603 15 27.0511 15 27.25C15 27.4489 15.079 27.6397 15.2197 27.7803C15.3603 27.921 15.5511 28 15.75 28H20.75Z" fill="#FF0056"/>
<path d="M32.75 30.7501H32.25C32.1837 30.7501 32.1201 30.7237 32.0732 30.6768C32.0263 30.63 32 30.5664 32 30.5001V29.7501C32 29.5511 31.921 29.3604 31.7803 29.2197C31.6397 29.0791 31.4489 29.0001 31.25 29.0001C31.0511 29.0001 30.8603 29.0791 30.7197 29.2197C30.579 29.3604 30.5 29.5511 30.5 29.7501V30.5001C30.5 30.5664 30.4737 30.63 30.4268 30.6768C30.3799 30.7237 30.3163 30.7501 30.25 30.7501H29.25C28.8912 30.7506 28.5364 30.6751 28.2089 30.5286C27.8814 30.3821 27.5887 30.1679 27.35 29.9001C27.021 29.5373 26.6197 29.2474 26.1719 29.0489C25.7241 28.8505 25.2398 28.748 24.75 28.748C24.2602 28.748 23.7759 28.8505 23.3281 29.0489C22.8803 29.2474 22.479 29.5373 22.15 29.9001C21.9109 30.1674 21.6181 30.3813 21.2907 30.5277C20.9633 30.6742 20.6087 30.75 20.25 30.7501H19.25C19.1837 30.7501 19.1201 30.7237 19.0732 30.6768C19.0263 30.63 19 30.5664 19 30.5001V29.7501C19 29.5511 18.921 29.3604 18.7803 29.2197C18.6397 29.0791 18.4489 29.0001 18.25 29.0001C18.0511 29.0001 17.8603 29.0791 17.7197 29.2197C17.579 29.3604 17.5 29.5511 17.5 29.7501V30.5001C17.5 30.5664 17.4737 30.63 17.4268 30.6768C17.3799 30.7237 17.3163 30.7501 17.25 30.7501H16.75C16.3522 30.7501 15.9706 30.9081 15.6893 31.1894C15.408 31.4707 15.25 31.8522 15.25 32.2501C15.25 32.6479 15.408 33.0294 15.6893 33.3107C15.9706 33.592 16.3522 33.7501 16.75 33.7501H20.25C20.4657 33.7514 20.6806 33.7783 20.89 33.8301C20.9346 33.842 20.9751 33.8661 21.0069 33.8996C21.0386 33.9332 21.0605 33.9749 21.07 34.0201C21.0789 34.066 21.0752 34.1134 21.0593 34.1574C21.0435 34.2014 21.0161 34.2403 20.98 34.2701C20.2063 34.8532 19.5793 35.6088 19.1488 36.4768C18.7183 37.3448 18.4961 38.3012 18.5 39.2701C18.5 39.469 18.579 39.6597 18.7197 39.8004C18.8603 39.941 19.0511 40.0201 19.25 40.0201C19.4489 40.0201 19.6397 39.941 19.7803 39.8004C19.921 39.6597 20 39.469 20 39.2701C19.9992 38.4198 20.2272 37.5849 20.66 36.853C21.0928 36.1211 21.7145 35.5191 22.46 35.1101C22.5007 35.0853 22.5474 35.0723 22.595 35.0723C22.6426 35.0723 22.6893 35.0853 22.73 35.1101L22.81 35.1701C22.8641 35.2084 22.9015 35.2661 22.9145 35.3312C22.9276 35.3962 22.9152 35.4638 22.88 35.5201C22.631 35.8855 22.4986 36.3178 22.5 36.7601C22.5 37.3568 22.7371 37.9291 23.159 38.3511C23.581 38.773 24.1533 39.0101 24.75 39.0101C25.3467 39.0101 25.919 38.773 26.341 38.3511C26.7629 37.9291 27 37.3568 27 36.7601C27.0014 36.3178 26.869 35.8855 26.62 35.5201C26.5848 35.4638 26.5724 35.3962 26.5855 35.3312C26.5985 35.2661 26.6359 35.2084 26.69 35.1701L26.77 35.1101C26.8107 35.0853 26.8574 35.0723 26.905 35.0723C26.9526 35.0723 26.9993 35.0853 27.04 35.1101C27.7855 35.5191 28.4072 36.1211 28.84 36.853C29.2728 37.5849 29.5008 38.4198 29.5 39.2701C29.5 39.469 29.579 39.6597 29.7197 39.8004C29.8603 39.941 30.0511 40.0201 30.25 40.0201C30.4489 40.0201 30.6397 39.941 30.7803 39.8004C30.921 39.6597 31 39.469 31 39.2701C31.0039 38.3012 30.7817 37.3448 30.3512 36.4768C29.9207 35.6088 29.2937 34.8532 28.52 34.2701C28.4839 34.2403 28.4565 34.2014 28.4407 34.1574C28.4248 34.1134 28.4211 34.066 28.43 34.0201C28.4395 33.9749 28.4614 33.9332 28.4931 33.8996C28.5249 33.8661 28.5654 33.842 28.61 33.8301C28.8194 33.7783 29.0343 33.7514 29.25 33.7501H32.75C33.1478 33.7501 33.5294 33.592 33.8107 33.3107C34.092 33.0294 34.25 32.6479 34.25 32.2501C34.25 31.8522 34.092 31.4707 33.8107 31.1894C33.5294 30.9081 33.1478 30.7501 32.75 30.7501ZM24.75 37.5001C24.6017 37.5001 24.4567 37.4561 24.3333 37.3737C24.21 37.2913 24.1139 37.1741 24.0571 37.0371C24.0003 36.9 23.9855 36.7492 24.0144 36.6037C24.0434 36.4583 24.1148 36.3246 24.2197 36.2197C24.3246 36.1148 24.4582 36.0434 24.6037 36.0145C24.7492 35.9855 24.9 36.0004 25.037 36.0572C25.1741 36.1139 25.2912 36.21 25.3736 36.3334C25.456 36.4567 25.5 36.6017 25.5 36.7501C25.4974 36.9482 25.4176 37.1374 25.2775 37.2775C25.1374 37.4176 24.9481 37.4975 24.75 37.5001Z" fill="#FF0056"/>
</g>
<defs>
<clipPath id="clip0_338_561">
<rect width="14" height="14" fill="white" transform="translate(11 10)"/>
</clipPath>
<clipPath id="clip1_338_561">
<rect width="24" height="24" fill="white" transform="translate(15 16)"/>
</clipPath>
</defs>
</svg>
