<svg width="50" height="50" viewBox="0 0 50 50" fill="none" xmlns="http://www.w3.org/2000/svg">
<rect width="50" height="50" rx="10" fill="#AB2EA4" fill-opacity="0.4"/>
<path d="M25.5989 31.1096C24.7817 31.3316 23.9386 31.4431 23.092 31.4408H22.5007C21.9976 29.9294 21.6025 28.3844 21.3182 26.8171H25.5989C25.8141 26.8144 26.0237 26.7486 26.2019 26.628V24.6296C26.0248 24.5053 25.8152 24.4353 25.5989 24.4285H20.9634C20.7951 22.8815 20.7399 21.3244 20.7979 19.7694H26.2374C26.4221 18.7474 27.252 17.9656 28.2831 17.8419C29.3143 17.7182 28.2831 17.7473 28.2831 17.7V17.4044H27.8338C27.6919 16.6239 27.3607 15.0394 27.0415 13.6204C27.6868 13.9221 28.2942 14.2992 28.8507 14.7437C29.2159 14.2029 29.741 13.7894 30.3526 13.5612V12.9228C28.9579 11.8269 27.3323 11.0627 25.5989 10.6878H25.4924C19.81 9.45939 14.0947 12.6227 12.1184 18.0902C10.142 23.5578 12.1184 18.1849 12.1184 18.2321C11.2194 20.7398 11.2194 23.4818 12.1184 25.9894V26.1313C13.5842 30.1092 17.0842 32.9852 21.2709 33.652C21.3855 33.6897 21.505 33.7096 21.6257 33.7111C22.116 33.7729 22.6096 33.8044 23.1038 33.8058C24.1502 33.8055 25.1921 33.6663 26.2019 33.3918V31.1096C26.0048 31.054 25.796 31.054 25.5989 31.1096ZM18.5984 24.4285H14.0695C13.8757 23.6791 13.7764 22.9085 13.7738 22.1344C13.7761 21.3362 13.8794 20.5417 14.0812 19.7694H18.4329C18.3747 21.3244 18.4301 22.8815 18.5984 24.4285ZM24.4164 12.8754C24.7238 14.1525 25.1968 16.2456 25.4214 17.4162H20.9634C21.1334 15.8844 21.4139 14.3667 21.803 12.8754C22.2336 12.8096 22.6683 12.7741 23.1038 12.769C23.5432 12.7751 23.9817 12.8106 24.4164 12.8754ZM19.1897 13.644C18.924 14.8858 18.7265 16.1411 18.5984 17.4044H15.0509C16.0154 15.7587 17.4594 14.4467 19.1897 13.644ZM15.039 26.7935H18.9177C19.1521 28.1621 19.4639 29.5163 19.8518 30.8495C17.8262 30.0957 16.1252 28.6621 15.039 26.7935Z" fill="#AB2EA4"/>
<path d="M30.6361 18.3033H35.9574C36.2375 18.2966 36.4746 18.0941 36.5249 17.8185C36.5753 17.5428 36.5249 17.7475 36.5249 17.712V16.4349C36.5062 16.2535 36.4542 16.077 36.3713 15.9146C36.3155 15.8301 36.2522 15.751 36.182 15.6782C36.1453 15.618 36.1017 15.5625 36.0519 15.5126C35.9691 15.4416 35.8746 15.4061 35.7918 15.347L35.6144 15.2524C35.532 15.2412 35.4485 15.2412 35.3661 15.2524C35.2877 15.2412 35.2081 15.2412 35.1296 15.2524H34.4556V11.4921C34.4556 10.8389 33.9262 10.3096 33.2731 10.3096C32.62 10.3096 32.0906 10.8389 32.0906 11.4921V15.1578H31.5111C31.4206 15.1522 31.3297 15.1522 31.2391 15.1578C31.1722 15.1511 31.105 15.1511 31.0381 15.1578C30.9358 15.2059 30.837 15.2612 30.7426 15.3234C30.6831 15.3518 30.6275 15.3876 30.577 15.4298C30.4907 15.5073 30.4186 15.5994 30.3641 15.7017C30.3251 15.7421 30.2896 15.7857 30.2576 15.8318C30.1759 15.9814 30.1276 16.1467 30.1157 16.3166V17.712C30.1136 18.0127 30.3375 18.2672 30.6361 18.3033Z" fill="#AB2EA4"/>
<path d="M39.789 37.5071C39.789 36.8541 39.2595 36.3246 38.6065 36.3246V20.1599C38.5937 19.8426 38.3328 19.592 38.0152 19.5923H28.5552C28.4017 19.5948 28.2543 19.6537 28.1413 19.7579C28.0317 19.8633 27.968 20.0078 27.964 20.1599V36.3246H12.8397C11.9295 36.3247 11.3605 37.3101 11.8157 38.0985C12.0269 38.4642 12.4173 38.6896 12.8397 38.6896H38.6065C39.2595 38.6896 39.789 38.1603 39.789 37.5071ZM35.059 25.3983H31.5115C30.8287 25.3983 30.4021 24.6592 30.7434 24.068C30.9019 23.7935 31.1947 23.6246 31.5115 23.6246H35.059C35.7416 23.6246 36.1684 24.3637 35.8271 24.9549C35.6686 25.2292 35.3758 25.3983 35.059 25.3983ZM35.9458 28.8631C35.9458 29.3528 35.5488 29.75 35.059 29.75H31.5115C30.8287 29.75 30.4021 29.0109 30.7434 28.4196C30.9018 28.1452 31.1947 27.9762 31.5115 27.9762H35.059C35.5507 27.9761 35.9513 28.3713 35.9577 28.8631H35.9458ZM31.5115 32.3278H35.059C35.7416 32.3278 36.1684 33.0669 35.8271 33.6581C35.6686 33.9326 35.3758 34.1015 35.059 34.1015H31.5115C30.8287 34.1015 30.4021 33.3624 30.7434 32.7712C30.9018 32.4969 31.1946 32.3278 31.5115 32.3278Z" fill="#AB2EA4"/>
</svg>
