<svg width="50" height="50" viewBox="0 0 50 50" fill="none" xmlns="http://www.w3.org/2000/svg">
<rect width="50" height="50" rx="10" fill="#FFB500" fill-opacity="0.38"/>
<path d="M23.6 35.465L16.6 31.44C16.1567 31.1833 15.8127 30.845 15.5682 30.425C15.3237 30.005 15.2009 29.5383 15.2 29.025V20.975C15.2 20.4617 15.3227 19.995 15.5682 19.575C15.8137 19.155 16.1576 18.8167 16.6 18.56L23.6 14.535C24.0433 14.2783 24.51 14.15 25 14.15C25.49 14.15 25.9567 14.2783 26.4 14.535L33.4 18.56C33.8433 18.8167 34.1877 19.155 34.4332 19.575C34.6787 19.995 34.8009 20.4617 34.8 20.975V29.025C34.8 29.5383 34.6777 30.005 34.4332 30.425C34.1887 30.845 33.8443 31.1833 33.4 31.44L26.4 35.465C25.9567 35.7217 25.49 35.85 25 35.85C24.51 35.85 24.0433 35.7217 23.6 35.465ZM23.6 32.245V25.805L18 22.55V29.025L23.6 32.245ZM26.4 32.245L32 29.025V22.55L26.4 25.805V32.245ZM12.4 19.4C12.0033 19.4 11.6711 19.2656 11.4032 18.9968C11.1353 18.728 11.0009 18.3957 11 18V13.8C11 13.03 11.2744 12.3711 11.8232 11.8232C12.372 11.2753 13.0309 11.0009 13.8 11H18C18.3967 11 18.7294 11.1344 18.9982 11.4032C19.267 11.672 19.4009 12.0043 19.4 12.4C19.4 12.7967 19.2656 13.1294 18.9968 13.3982C18.728 13.667 18.3957 13.8009 18 13.8H13.8V18C13.8 18.3967 13.6656 18.7294 13.3968 18.9982C13.128 19.267 12.7957 19.4009 12.4 19.4ZM13.8 39C13.03 39 12.3711 38.7261 11.8232 38.1782C11.2753 37.6303 11.0009 36.9709 11 36.2V32C11 31.6033 11.1344 31.2711 11.4032 31.0032C11.672 30.7353 12.0043 30.6009 12.4 30.6C12.7967 30.6 13.1294 30.7344 13.3982 31.0032C13.667 31.272 13.8009 31.6043 13.8 32V36.2H18C18.3967 36.2 18.7294 36.3344 18.9982 36.6032C19.267 36.872 19.4009 37.2043 19.4 37.6C19.4 37.9967 19.2656 38.3294 18.9968 38.5982C18.728 38.867 18.3957 39.0009 18 39H13.8ZM36.2 39H32C31.6033 39 31.2711 38.8656 31.0032 38.5968C30.7353 38.328 30.6009 37.9957 30.6 37.6C30.6 37.2033 30.7344 36.8711 31.0032 36.6032C31.272 36.3353 31.6043 36.2009 32 36.2H36.2V32C36.2 31.6033 36.3344 31.2711 36.6032 31.0032C36.872 30.7353 37.2043 30.6009 37.6 30.6C37.9967 30.6 38.3294 30.7344 38.5982 31.0032C38.867 31.272 39.0009 31.6043 39 32V36.2C39 36.97 38.7261 37.6294 38.1782 38.1782C37.6303 38.727 36.9709 39.0009 36.2 39ZM36.2 18V13.8H32C31.6033 13.8 31.2711 13.6656 31.0032 13.3968C30.7353 13.128 30.6009 12.7957 30.6 12.4C30.6 12.0033 30.7344 11.6711 31.0032 11.4032C31.272 11.1353 31.6043 11.0009 32 11H36.2C36.97 11 37.6294 11.2744 38.1782 11.8232C38.727 12.372 39.0009 13.0309 39 13.8V18C39 18.3967 38.8656 18.7294 38.5968 18.9982C38.328 19.267 37.9957 19.4009 37.6 19.4C37.2033 19.4 36.8711 19.2656 36.6032 18.9968C36.3353 18.728 36.2009 18.3957 36.2 18ZM25 23.39L30.53 20.135L25 16.95L19.47 20.135L25 23.39Z" fill="#FFB500"/>
</svg>
