<svg width="50" height="50" viewBox="0 0 50 50" fill="none" xmlns="http://www.w3.org/2000/svg">
<rect width="50" height="50" rx="10" fill="#DF365F" fill-opacity="0.4"/>
<path d="M13.6265 15.4763C13.6265 16.2779 13.9449 17.0466 14.5117 17.6133C15.0784 18.1801 15.8471 18.4985 16.6487 18.4985C17.4502 18.4985 18.2189 18.1801 18.7857 17.6133C19.3525 17.0466 19.6709 16.2779 19.6709 15.4763C19.6709 14.6748 19.3525 13.9061 18.7857 13.3393C18.2189 12.7725 17.4502 12.4541 16.6487 12.4541C15.8471 12.4541 15.0784 12.7725 14.5117 13.3393C13.9449 13.9061 13.6265 14.6748 13.6265 15.4763Z" fill="#DF365F"/>
<path d="M29.1609 32.2436C28.9728 30.9489 28.3264 29.7647 27.3392 28.9062C26.3521 28.0477 25.0896 27.5718 23.7814 27.5652H21.8955C21.4921 27.5684 21.0995 27.4353 20.7813 27.1873C20.4631 26.9393 20.238 26.5911 20.1426 26.1991L19.0184 21.69C18.8985 21.2252 18.6004 20.8263 18.1887 20.5797C17.7769 20.3331 17.2845 20.2586 16.8182 20.3723C16.5864 20.4288 16.3681 20.5308 16.176 20.6723C15.9839 20.8139 15.8219 20.9922 15.6993 21.1969C15.5767 21.4016 15.496 21.6286 15.4619 21.8647C15.4278 22.1009 15.4409 22.3414 15.5005 22.5725L16.6248 27.0816C16.9169 28.2576 17.5949 29.3017 18.5505 30.0468C19.506 30.7919 20.6838 31.1951 21.8955 31.1918H23.7814C24.2165 31.1958 24.6359 31.3552 24.964 31.6411C25.292 31.927 25.5071 32.3208 25.5705 32.7513L26.3321 37.4538C26.3982 37.933 26.6517 38.3664 27.037 38.6588C27.4223 38.9512 27.908 39.0787 28.3872 39.0133C28.6225 38.9807 28.849 38.9019 29.0537 38.7814C29.2584 38.6609 29.4372 38.5011 29.5799 38.3112C29.7226 38.1213 29.8264 37.9051 29.8851 37.675C29.9439 37.4448 29.9566 37.2054 29.9225 36.9703L29.1609 32.2436Z" fill="#DF365F"/>
<path d="M22.8625 35.2416C22.8215 34.9511 22.6762 34.6855 22.4538 34.4942C22.2314 34.303 21.947 34.1991 21.6537 34.202C19.7999 34.1627 18.0103 33.5156 16.56 32.3602C15.1098 31.2048 14.0792 29.6051 13.6267 27.807C13.0706 25.6068 12.8409 24.6639 12.587 23.6121C12.5208 23.3439 12.3648 23.1065 12.1448 22.9393C11.9249 22.7721 11.6543 22.6853 11.3781 22.6934H10.6044C10.4441 22.6934 10.2904 22.7571 10.177 22.8704C10.0637 22.9838 10 23.1375 10 23.2978V37.8044C10 38.1251 10.1274 38.4325 10.3541 38.6593C10.5808 38.886 10.8883 39.0133 11.2089 39.0133H22.0888C22.2641 39.0153 22.4377 38.9792 22.5975 38.9074C22.7574 38.8357 22.8998 38.73 23.0148 38.5978C23.1298 38.4655 23.2146 38.3099 23.2635 38.1416C23.3123 37.9733 23.324 37.7964 23.2977 37.6231C23.2977 37.4539 23.0197 36.3538 22.8625 35.2416Z" fill="#DF365F"/>
<path d="M31.4577 11.8133C31.6972 11.8102 31.926 11.7137 32.0954 11.5443C32.2647 11.375 32.3613 11.1462 32.3644 10.9067C32.3613 10.6672 32.2647 10.4384 32.0954 10.269C31.926 10.0997 31.6972 10.0031 31.4577 10H29.04C28.8005 10.0031 28.5717 10.0997 28.4023 10.269C28.233 10.4384 28.1364 10.6672 28.1333 10.9067C28.1364 11.1462 28.233 11.375 28.4023 11.5443C28.5717 11.7137 28.8005 11.8102 29.04 11.8133H29.3422V17.2533H29.04C28.7995 17.2533 28.5689 17.3488 28.3989 17.5189C28.2288 17.6889 28.1333 17.9195 28.1333 18.16C28.1333 18.4004 28.2288 18.631 28.3989 18.8011C28.5689 18.9711 28.7995 19.0666 29.04 19.0666H31.4577C31.6982 19.0666 31.9288 18.9711 32.0988 18.8011C32.2689 18.631 32.3644 18.4004 32.3644 18.16C32.3644 17.9195 32.2689 17.6889 32.0988 17.5189C31.9288 17.3488 31.6982 17.2533 31.4577 17.2533H31.1555V11.8133H31.4577Z" fill="#DF365F"/>
<path d="M36.2932 10H34.4799C34.2394 10 34.0088 10.0955 33.8388 10.2656C33.6688 10.4356 33.5732 10.6662 33.5732 10.9067V18.16C33.5732 18.4004 33.6688 18.631 33.8388 18.8011C34.0088 18.9711 34.2394 19.0666 34.4799 19.0666C34.7204 19.0666 34.951 18.9711 35.121 18.8011C35.291 18.631 35.3866 18.4004 35.3866 18.16V15.44H36.2932C37.0146 15.44 37.7065 15.1534 38.2166 14.6433C38.7267 14.1332 39.0132 13.4414 39.0132 12.72C39.0132 11.9986 38.7267 11.3068 38.2166 10.7967C37.7065 10.2866 37.0146 10 36.2932 10ZM36.2932 13.6267H35.3866V11.8133H36.2932C36.5337 11.8133 36.7643 11.9089 36.9343 12.0789C37.1044 12.2489 37.1999 12.4795 37.1999 12.72C37.1999 12.9605 37.1044 13.1911 36.9343 13.3611C36.7643 13.5311 36.5337 13.6267 36.2932 13.6267Z" fill="#DF365F"/>
<path d="M24.2044 19.0666C24.3453 19.0676 24.4845 19.0352 24.6105 18.9722C24.7366 18.9092 24.8459 18.8173 24.9297 18.704C26.2175 16.974 26.9166 14.8767 26.9244 12.72V10.9067C26.9244 10.6662 26.8289 10.4356 26.6588 10.2656C26.4888 10.0955 26.2582 10 26.0177 10C25.7773 10 25.5466 10.0955 25.3766 10.2656C25.2066 10.4356 25.1111 10.6662 25.1111 10.9067V12.72C25.1092 14.0194 24.7985 15.2998 24.2044 16.4554C23.6103 15.2998 23.2996 14.0194 23.2977 12.72V10.9067C23.2977 10.6662 23.2022 10.4356 23.0322 10.2656C22.8621 10.0955 22.6315 10 22.3911 10C22.1506 10 21.92 10.0955 21.75 10.2656C21.5799 10.4356 21.4844 10.6662 21.4844 10.9067V12.72C21.4792 14.8973 22.1789 17.0178 23.4791 18.7644C23.569 18.8667 23.6811 18.9471 23.8068 18.9994C23.9325 19.0518 24.0685 19.0748 24.2044 19.0666Z" fill="#DF365F"/>
</svg>
