<svg width="50" height="50" viewBox="0 0 50 50" fill="none" xmlns="http://www.w3.org/2000/svg">
<rect width="50" height="50" rx="10" fill="#4474D7" fill-opacity="0.4"/>
<path d="M25.2905 24.9984C24.7356 25.4956 20.2885 29.6461 20.2885 29.6461L21.4757 30.7722C21.4757 30.7722 25.4268 27.2642 26.0202 26.7336C26.167 26.6029 25.5608 32 26.0202 32H40.2565L40.3501 24.5588H26.4064C25.9988 24.5592 25.6126 24.7132 25.2905 24.9984ZM33.274 15.241C34.854 15.241 35.7163 14.1885 35.7163 12.8915C35.7162 12.427 35.5729 11.9729 35.3046 11.5866C35.0362 11.2004 34.6549 10.8994 34.2087 10.7217C33.7625 10.544 33.2716 10.4975 32.798 10.5881C32.3243 10.6788 31.8893 10.9025 31.5478 11.231C31.2063 11.5595 30.9738 11.978 30.8795 12.4336C30.7853 12.8892 30.8336 13.3615 31.0184 13.7907C31.2031 14.2199 31.516 14.5867 31.9175 14.8449C32.319 15.103 32.7911 15.2409 33.274 15.241ZM29.653 19.2781H30.472L29.272 23.4254H37.2769L36.0759 19.2781H36.8949L38.1406 23.4254H40.2565L38.5558 17.9222C38.3311 17.1622 37.332 15.8159 35.6023 15.8159H30.9457C29.2169 15.8159 28.2188 17.1622 27.9922 17.9222L26.2938 23.4254H28.4098L29.653 19.2781ZM22.7294 23.2079L20.5797 19.3521C20.5797 19.3521 20.4533 19.1684 20.2191 19.2777C20.0087 19.3754 20.1037 19.6035 20.1037 19.6035L20.8168 20.9128L21.2605 21.7286L20.7488 21.5069C19.8424 21.1139 19.3426 20.9462 19.1421 20.8598C19.1065 20.8438 18.9307 20.751 18.8471 20.5742C18.6096 20.0632 17.5953 17.5936 17.3678 17.0475C17.1754 16.5855 16.7008 15.9292 15.7255 15.697C14.6152 15.4329 13.496 16.1065 13.2318 17.1782L11.7168 23.3207C11.5819 23.8161 11.3501 25.1561 11.3501 25.7209L11.3601 37.7191C11.3677 38.7313 12.1273 39.5475 13.1786 39.5429C14.2285 39.5398 14.9473 38.7167 14.944 37.7058L14.9416 27.5412L16.5573 20.9809C16.7459 21.4246 16.9796 21.9653 17.0561 22.0951C17.2381 22.4013 17.4177 22.6119 17.7844 22.7778C17.7844 22.7778 19.8989 23.6196 20.7175 23.9788C20.9512 24.0648 21.2075 24.0764 21.4486 24.0121C21.6898 23.9478 21.9032 23.8109 22.0576 23.6215L22.1707 23.3962L22.2097 23.4679C22.2097 23.4679 22.4505 23.876 22.8063 23.8947C22.9085 23.5835 22.7294 23.2079 22.7294 23.2079ZM19.4609 12.8714C19.4609 13.18 19.3977 13.4855 19.275 13.7706C19.1522 14.0557 18.9723 14.3147 18.7455 14.5329C18.5187 14.7511 18.2494 14.9241 17.9531 15.0422C17.6567 15.1603 17.3391 15.2211 17.0184 15.2211C16.6976 15.2211 16.38 15.1603 16.0836 15.0422C15.7873 14.9241 15.518 14.7511 15.2912 14.5329C15.0644 14.3147 14.8845 14.0557 14.7617 13.7706C14.639 13.4855 14.5758 13.18 14.5758 12.8714C14.5848 12.2539 14.846 11.6646 15.3031 11.231C15.7602 10.7974 16.3764 10.5543 17.0184 10.5543C17.6603 10.5543 18.2765 10.7974 18.7336 11.231C19.1907 11.6646 19.452 12.2539 19.4609 12.8714Z" fill="#4474D7"/>
<path d="M21.7205 26.3317C21.7268 26.2149 21.6923 26.0954 21.6143 25.9962L21.7132 25.9184C21.8839 26.1355 22.1982 26.1731 22.4153 26.0024L23.0691 25.4883C23.0788 25.5784 23.1131 25.6671 23.1732 25.7436L22.1894 26.517C22.074 26.3702 21.8929 26.3055 21.7205 26.3317ZM23.9309 24.5119C23.9212 24.4217 23.8869 24.3331 23.8268 24.2566L24.8106 23.483C24.926 23.6298 25.1072 23.6945 25.2795 23.6683C25.2731 23.7852 25.3076 23.9049 25.3857 24.0042L25.2868 24.0819C25.1162 23.8648 24.8018 23.8272 24.5847 23.9978L23.9309 24.5119Z" fill="black" stroke="#4474D7" stroke-linecap="round" stroke-linejoin="round" stroke-dasharray="2 4 6 8"/>
</svg>
