<svg width="50" height="50" viewBox="0 0 50 50" fill="none" xmlns="http://www.w3.org/2000/svg">
<rect width="50" height="50" rx="10" fill="#9DE2D4"/>
<g clip-path="url(#clip0_338_440)">
<path fill-rule="evenodd" clip-rule="evenodd" d="M28.796 12.4497C28.8238 11.5872 29.5456 10.9105 30.4081 10.9383L35.2333 11.094C35.2497 11.0945 35.2661 11.0953 35.2825 11.0963C37.2338 11.2208 38.7793 12.766 38.904 14.7175C38.9051 14.7339 38.9059 14.7503 38.9064 14.7667L39.0623 19.5924C39.0901 20.4549 38.4135 21.1767 37.551 21.2046C36.6885 21.2324 35.9668 20.5558 35.9389 19.6933L35.784 14.8987C35.7521 14.5312 35.4691 14.2482 35.1015 14.2163L30.3073 14.0617C29.4448 14.0339 28.7682 13.3121 28.796 12.4497ZM21.2046 12.4497C21.1767 11.5872 20.455 10.9105 19.5925 10.9383L14.7672 11.094C14.7508 11.0945 14.7345 11.0953 14.7181 11.0963C12.7668 11.2209 11.2213 12.7661 11.0965 14.7175C11.0955 14.7339 11.0947 14.7503 11.0942 14.7667L10.9383 19.5924C10.9105 20.4549 11.5871 21.1767 12.4496 21.2046C13.3121 21.2324 14.0338 20.5558 14.0617 19.6933L14.2165 14.8987C14.2484 14.5312 14.5315 14.2482 14.8991 14.2163L19.6932 14.0617C20.5557 14.0339 21.2324 13.3122 21.2046 12.4497ZM14.0622 30.3068C14.0344 29.4443 13.3126 28.7676 12.4501 28.7955C11.5876 28.8233 10.911 29.5451 10.9389 30.4076L11.0947 35.2334C11.0952 35.2498 11.096 35.2662 11.0971 35.2826C11.2218 37.234 12.7673 38.7792 14.7186 38.9037C14.735 38.9048 14.7514 38.9056 14.7678 38.9061L19.5931 39.0617C20.4556 39.0895 21.1773 38.4129 21.2051 37.5504C21.2329 36.6879 20.5562 35.9661 19.6938 35.9383L14.8996 35.7837C14.532 35.7519 14.249 35.4688 14.2171 35.1013L14.0622 30.3068ZM35.9389 30.3073C35.9667 29.4448 36.6885 28.7682 37.551 28.796C38.4135 28.8239 39.0901 29.5456 39.0623 30.4081L38.9064 35.2339C38.9058 35.2503 38.9051 35.2668 38.904 35.2831C38.7793 37.2345 37.2338 38.7798 35.2824 38.9043C35.2661 38.9053 35.2497 38.9061 35.2333 38.9066L30.4081 39.0623C29.5456 39.0901 28.8238 38.4134 28.796 37.5509C28.7682 36.6884 29.4448 35.9667 30.3073 35.9389L35.1015 35.7843C35.4691 35.7524 35.7521 35.4694 35.784 35.1019L35.9389 30.3073Z" fill="#39A790"/>
<path d="M25 15.9375C22.8973 15.9375 21.3197 16.0281 20.1942 16.134C18.6632 16.2781 17.5302 17.4374 17.3998 18.9657C17.2881 20.2752 17.1875 22.225 17.1875 25C17.1875 27.775 17.2881 29.7248 17.3998 31.0343C17.5302 32.5626 18.6632 33.7219 20.1942 33.8659C21.3197 33.9719 22.8973 34.0625 25 34.0625C27.1027 34.0625 28.6802 33.9719 29.8058 33.8659C31.3368 33.7219 32.4698 32.5626 32.6002 31.0343C32.7119 29.7248 32.8125 27.775 32.8125 25C32.8125 23.8361 32.7948 22.8175 32.766 21.9304C32.765 21.8996 32.7594 21.8691 32.7496 21.84C32.5899 21.3701 32.0426 20.143 30.3177 18.4247C28.4547 16.5689 27.1674 16.0816 26.7922 15.9714C26.7662 15.9638 26.7394 15.9596 26.7122 15.9589C26.1852 15.9453 25.6151 15.9375 25 15.9375Z" fill="#3DAF98"/>
<path d="M32.7693 22.0299C32.7682 21.9966 32.7672 21.9634 32.7661 21.9304C32.7651 21.8997 32.7595 21.8692 32.7497 21.8401C32.59 21.3702 32.0427 20.1431 30.3178 18.4247C28.4548 16.5689 27.1675 16.0817 26.7923 15.9715C26.7688 15.9646 26.7445 15.9605 26.72 15.9592C26.7284 16.8141 26.7918 17.7477 26.8613 18.5481C27.016 20.3313 28.4195 21.7343 30.2026 21.8889C30.9961 21.9577 31.9206 22.0205 32.7693 22.0299Z" fill="#73D6C2"/>
<path fill-rule="evenodd" clip-rule="evenodd" d="M21.2178 29.3103C21.2178 29.8281 21.6375 30.2478 22.1553 30.2478H27.3277C27.8455 30.2478 28.2652 29.8281 28.2652 29.3103C28.2652 28.7926 27.8455 28.3728 27.3277 28.3728H22.1553C21.6375 28.3728 21.2178 28.7926 21.2178 29.3103Z" fill="#9DE2D4"/>
<path fill-rule="evenodd" clip-rule="evenodd" d="M21.2178 25.5603C21.2178 26.0781 21.6375 26.4978 22.1553 26.4978H25.2587C25.7765 26.4978 26.1962 26.0781 26.1962 25.5603C26.1962 25.0426 25.7765 24.6228 25.2587 24.6228H22.1553C21.6375 24.6228 21.2178 25.0426 21.2178 25.5603Z" fill="#9DE2D4"/>
</g>
<defs>
<clipPath id="clip0_338_440">
<rect width="30" height="30" fill="white" transform="translate(10 10)"/>
</clipPath>
</defs>
</svg>
