<svg width="1440" height="712" viewBox="0 0 1440 712" fill="none" xmlns="http://www.w3.org/2000/svg">
<g opacity="0.4">
<path fill-rule="evenodd" clip-rule="evenodd" d="M1440 241.512C1440.01 284.393 1420.68 357.121 1394.24 389.111C1353.97 437.824 1291.16 460.077 1212.49 468.031C1064.88 482.955 959.086 409.648 959.086 356.122C959.086 306.127 981.064 275.299 1043.53 241.512C1105.99 207.725 1149.64 183.595 1178.35 143.201C1206.63 103.405 1243.52 85.5181 1282.04 85.5181C1323.71 85.518 1364.5 97.9045 1394.24 126.958C1424.57 156.599 1439.99 198.641 1440 241.512Z" fill="#4474D7" fill-opacity="0.45"/>
<path fill-rule="evenodd" clip-rule="evenodd" d="M1106.18 379.17C1087.71 403.743 1065.81 449.594 1064.9 473.637C1063.52 510.247 1084.49 536.558 1119.34 558.098C1184.72 598.516 1267.74 579.341 1290.78 548.666C1312.31 520.015 1314.89 497.603 1299.05 464.756C1283.2 431.908 1272.36 408.657 1275.78 379.311C1279.16 350.4 1268.91 332.185 1250.17 323.869C1229.9 314.875 1204.73 313.167 1177.75 323.399C1150.24 333.838 1124.64 354.604 1106.18 379.17Z" fill="#9DE2D4"/>
<path d="M1112.01 175.33L1107.79 177.035L1108.6 173.424L1105.18 170.867L1109.9 170.341L1112.01 167.055L1114.12 170.341L1118.84 170.867L1115.42 173.424L1116.23 177.035L1112.01 175.33Z" fill="#4474D7"/>
<path d="M1132.51 7.58497L1129.2 8.92416L1129.83 6.08731L1127.15 4.07833L1130.85 3.6644L1132.51 1.08301L1134.17 3.6644L1137.87 4.07833L1135.19 6.08731L1135.83 8.92416L1132.51 7.58497Z" fill="#4474D7"/>
<g clip-path="url(#clip0_179_1329)">
<path d="M1231.27 289.429C1230 289.429 1228.97 288.638 1228.97 287.662C1228.97 286.687 1230 285.896 1231.27 285.896C1232.54 285.896 1233.57 286.687 1233.57 287.662C1233.57 288.638 1232.54 289.429 1231.27 289.429Z" fill="#4474D7"/>
</g>
<g clip-path="url(#clip1_179_1329)">
<path d="M1164.73 256.039C1162.57 256.039 1160.82 254.695 1160.82 253.038C1160.82 251.38 1162.57 250.036 1164.73 250.036C1166.88 250.036 1168.63 251.38 1168.63 253.038C1168.63 254.695 1166.88 256.039 1164.73 256.039Z" fill="#4474D7"/>
</g>
<g clip-path="url(#clip2_179_1329)">
<path d="M1134.7 138.183C1133.43 138.183 1132.4 137.392 1132.4 136.416C1132.4 135.44 1133.43 134.649 1134.7 134.649C1135.97 134.649 1137 135.44 1137 136.416C1137 137.392 1135.97 138.183 1134.7 138.183Z" fill="#4474D7"/>
</g>
<g clip-path="url(#clip3_179_1329)">
<path d="M1177.93 185.089C1174.96 185.089 1172.56 183.242 1172.56 180.962C1172.56 178.683 1174.96 176.835 1177.93 176.835C1180.89 176.835 1183.29 178.683 1183.29 180.962C1183.29 183.242 1180.89 185.089 1177.93 185.089Z" fill="#4474D7"/>
</g>
<g clip-path="url(#clip4_179_1329)">
<path d="M1143.89 92.6464C1142.81 92.6464 1141.94 91.9746 1141.94 91.1457C1141.94 90.3169 1142.81 89.645 1143.89 89.645C1144.97 89.645 1145.84 90.3169 1145.84 91.1457C1145.84 91.9746 1144.97 92.6464 1143.89 92.6464Z" fill="#4474D7"/>
</g>
<path d="M1182.96 121.703C1181.07 121.703 1179.54 120.527 1179.54 119.077C1179.54 117.626 1181.07 116.451 1182.96 116.451C1184.84 116.451 1186.37 117.626 1186.37 119.077C1186.37 120.527 1184.84 121.703 1182.96 121.703Z" fill="#4474D7"/>
<g clip-path="url(#clip5_179_1329)">
<path d="M1055.78 170.644C1054.16 170.644 1052.85 169.636 1052.85 168.393C1052.85 167.15 1054.16 166.142 1055.78 166.142C1057.4 166.142 1058.71 167.15 1058.71 168.393C1058.71 169.636 1057.4 170.644 1055.78 170.644Z" fill="#4474D7"/>
</g>
<path d="M1198.76 78.505V75.6912C1198.76 75.5419 1198.69 75.3988 1198.55 75.2932C1198.41 75.1877 1198.23 75.1284 1198.03 75.1284C1197.84 75.1284 1197.65 75.1877 1197.51 75.2932C1197.38 75.3988 1197.3 75.5419 1197.3 75.6912V78.505H1193.64C1193.44 78.505 1193.26 78.5643 1193.12 78.6698C1192.98 78.7754 1192.91 78.9185 1192.91 79.0678C1192.91 79.217 1192.98 79.3601 1193.12 79.4657C1193.26 79.5712 1193.44 79.6305 1193.64 79.6305H1197.3V82.4443C1197.3 82.5936 1197.38 82.7367 1197.51 82.8423C1197.65 82.9478 1197.84 83.0071 1198.03 83.0071C1198.23 83.0071 1198.41 82.9478 1198.55 82.8423C1198.69 82.7367 1198.76 82.5936 1198.76 82.4443V79.6305H1202.43C1202.62 79.6305 1202.81 79.5712 1202.94 79.4657C1203.08 79.3601 1203.16 79.217 1203.16 79.0678C1203.16 78.9185 1203.08 78.7754 1202.94 78.6698C1202.81 78.5643 1202.62 78.505 1202.43 78.505H1198.76Z" fill="#4474D7"/>
<path d="M1165.27 40.3389V38.8382C1165.27 38.7586 1165.23 38.6823 1165.16 38.626C1165.09 38.5697 1164.99 38.5381 1164.88 38.5381C1164.78 38.5381 1164.68 38.5697 1164.61 38.626C1164.53 38.6823 1164.49 38.7586 1164.49 38.8382V40.3389H1162.54C1162.44 40.3389 1162.34 40.3705 1162.26 40.4268C1162.19 40.4831 1162.15 40.5595 1162.15 40.6391C1162.15 40.7187 1162.19 40.795 1162.26 40.8513C1162.34 40.9076 1162.44 40.9392 1162.54 40.9392H1164.49V42.4399C1164.49 42.5195 1164.53 42.5958 1164.61 42.6521C1164.68 42.7084 1164.78 42.74 1164.88 42.74C1164.99 42.74 1165.09 42.7084 1165.16 42.6521C1165.23 42.5958 1165.27 42.5195 1165.27 42.4399V40.9392H1167.23C1167.33 40.9392 1167.43 40.9076 1167.5 40.8513C1167.58 40.795 1167.62 40.7187 1167.62 40.6391C1167.62 40.5595 1167.58 40.4831 1167.5 40.4268C1167.43 40.3705 1167.33 40.3389 1167.23 40.3389H1165.27Z" fill="#4474D7"/>
<g clip-path="url(#clip6_179_1329)">
<path d="M1237.54 65.0414C1235.92 65.0414 1234.61 64.0336 1234.61 62.7904C1234.61 61.5471 1235.92 60.5393 1237.54 60.5393C1239.16 60.5393 1240.47 61.5471 1240.47 62.7904C1240.47 64.0336 1239.16 65.0414 1237.54 65.0414Z" fill="#4474D7"/>
</g>
<path d="M1185.01 352.561V351.06C1185.01 350.981 1184.97 350.904 1184.89 350.848C1184.82 350.792 1184.72 350.76 1184.62 350.76C1184.51 350.76 1184.41 350.792 1184.34 350.848C1184.27 350.904 1184.23 350.981 1184.23 351.06V352.561H1182.27C1182.17 352.561 1182.07 352.592 1182 352.649C1181.92 352.705 1181.88 352.781 1181.88 352.861C1181.88 352.941 1181.92 353.017 1182 353.073C1182.07 353.13 1182.17 353.161 1182.27 353.161H1184.23V354.662C1184.23 354.741 1184.27 354.818 1184.34 354.874C1184.41 354.93 1184.51 354.962 1184.62 354.962C1184.72 354.962 1184.82 354.93 1184.89 354.874C1184.97 354.818 1185.01 354.741 1185.01 354.662V353.161H1186.96C1187.06 353.161 1187.16 353.13 1187.24 353.073C1187.31 353.017 1187.35 352.941 1187.35 352.861C1187.35 352.781 1187.31 352.705 1187.24 352.649C1187.16 352.592 1187.06 352.561 1186.96 352.561H1185.01Z" fill="#4474D7"/>
<path d="M1264.86 132.276L1265.73 131.613C1265.75 131.595 1265.77 131.575 1265.78 131.552C1265.79 131.529 1265.8 131.504 1265.8 131.48C1265.8 131.455 1265.79 131.43 1265.78 131.407C1265.77 131.384 1265.75 131.363 1265.73 131.345C1265.71 131.328 1265.68 131.314 1265.65 131.304C1265.62 131.295 1265.59 131.29 1265.55 131.29C1265.52 131.291 1265.49 131.296 1265.46 131.306C1265.43 131.315 1265.4 131.33 1265.38 131.348L1264.52 132.011L1263.65 131.348C1263.63 131.33 1263.6 131.315 1263.58 131.306C1263.55 131.296 1263.51 131.291 1263.48 131.29C1263.45 131.29 1263.42 131.295 1263.39 131.304C1263.36 131.314 1263.33 131.328 1263.31 131.345C1263.28 131.363 1263.27 131.384 1263.25 131.407C1263.24 131.43 1263.23 131.455 1263.23 131.48C1263.23 131.504 1263.24 131.529 1263.25 131.552C1263.27 131.575 1263.29 131.595 1263.31 131.613L1264.17 132.276L1263.31 132.939C1263.29 132.957 1263.27 132.977 1263.25 133C1263.24 133.023 1263.23 133.048 1263.23 133.073C1263.23 133.097 1263.24 133.122 1263.25 133.145C1263.27 133.168 1263.28 133.189 1263.31 133.207C1263.33 133.224 1263.36 133.238 1263.39 133.248C1263.42 133.257 1263.45 133.262 1263.48 133.262C1263.51 133.262 1263.55 133.256 1263.58 133.247C1263.6 133.237 1263.63 133.222 1263.65 133.204L1264.52 132.541L1265.38 133.204C1265.4 133.222 1265.43 133.237 1265.46 133.247C1265.49 133.256 1265.52 133.262 1265.55 133.262C1265.59 133.262 1265.62 133.257 1265.65 133.248C1265.68 133.238 1265.71 133.224 1265.73 133.207C1265.75 133.189 1265.77 133.168 1265.78 133.145C1265.79 133.122 1265.8 133.097 1265.8 133.073C1265.8 133.048 1265.79 133.023 1265.78 133C1265.77 132.977 1265.75 132.957 1265.73 132.939L1264.86 132.276V132.276Z" fill="#4474D7"/>
<path d="M1212.49 30.0202L1215.08 28.0303C1215.15 27.9784 1215.21 27.9163 1215.25 27.8476C1215.29 27.779 1215.31 27.7051 1215.31 27.6304C1215.31 27.5557 1215.29 27.4816 1215.25 27.4124C1215.21 27.3432 1215.16 27.2804 1215.09 27.2276C1215.02 27.1747 1214.94 27.1329 1214.85 27.1047C1214.76 27.0764 1214.66 27.0621 1214.57 27.0628C1214.47 27.0634 1214.37 27.0789 1214.29 27.1084C1214.2 27.1379 1214.11 27.1808 1214.05 27.2345L1211.46 29.2239L1208.87 27.2345C1208.8 27.1808 1208.72 27.1379 1208.63 27.1084C1208.54 27.0789 1208.45 27.0634 1208.35 27.0628C1208.25 27.0621 1208.16 27.0764 1208.07 27.1047C1207.98 27.1329 1207.89 27.1747 1207.83 27.2276C1207.76 27.2804 1207.7 27.3432 1207.67 27.4124C1207.63 27.4816 1207.61 27.5557 1207.61 27.6304C1207.61 27.7051 1207.63 27.779 1207.67 27.8476C1207.71 27.9163 1207.76 27.9784 1207.83 28.0303L1210.42 30.0197L1207.83 32.0096C1207.76 32.0615 1207.71 32.1236 1207.67 32.1923C1207.63 32.2609 1207.61 32.3348 1207.61 32.4095C1207.61 32.4842 1207.63 32.5583 1207.67 32.6275C1207.7 32.6966 1207.76 32.7595 1207.83 32.8123C1207.89 32.8651 1207.98 32.9069 1208.07 32.9352C1208.16 32.9635 1208.25 32.9778 1208.35 32.9771C1208.45 32.9765 1208.54 32.9609 1208.63 32.9314C1208.72 32.902 1208.8 32.8591 1208.87 32.8053L1211.46 30.816L1214.05 32.8053C1214.11 32.8591 1214.2 32.902 1214.29 32.9314C1214.37 32.9609 1214.47 32.9765 1214.57 32.9771C1214.66 32.9778 1214.76 32.9635 1214.85 32.9352C1214.94 32.9069 1215.02 32.8651 1215.09 32.8123C1215.16 32.7595 1215.21 32.6966 1215.25 32.6275C1215.29 32.5583 1215.31 32.4842 1215.31 32.4095C1215.31 32.3348 1215.29 32.2609 1215.25 32.1923C1215.21 32.1236 1215.15 32.0615 1215.08 32.0096L1212.49 30.0197V30.0202Z" fill="#4474D7"/>
<path d="M1225.29 224.835V222.584C1225.29 222.464 1225.23 222.35 1225.12 222.265C1225.01 222.181 1224.86 222.134 1224.71 222.134C1224.55 222.134 1224.4 222.181 1224.29 222.265C1224.18 222.35 1224.12 222.464 1224.12 222.584V224.835H1221.19C1221.04 224.835 1220.89 224.882 1220.78 224.967C1220.67 225.051 1220.61 225.166 1220.61 225.285C1220.61 225.404 1220.67 225.519 1220.78 225.603C1220.89 225.688 1221.04 225.735 1221.19 225.735H1224.12V227.986C1224.12 228.106 1224.18 228.22 1224.29 228.305C1224.4 228.389 1224.55 228.436 1224.71 228.436C1224.86 228.436 1225.01 228.389 1225.12 228.305C1225.23 228.22 1225.29 228.106 1225.29 227.986V225.735H1228.22C1228.38 225.735 1228.53 225.688 1228.64 225.603C1228.75 225.519 1228.81 225.404 1228.81 225.285C1228.81 225.166 1228.75 225.051 1228.64 224.967C1228.53 224.882 1228.38 224.835 1228.22 224.835H1225.29Z" fill="#4474D7"/>
<path d="M965.627 188.034V186.159C965.627 186.059 965.575 185.964 965.484 185.893C965.392 185.823 965.268 185.783 965.139 185.783C965.009 185.783 964.885 185.823 964.794 185.893C964.702 185.964 964.651 186.059 964.651 186.159V188.034H962.21C962.081 188.034 961.956 188.074 961.865 188.144C961.773 188.215 961.722 188.31 961.722 188.41C961.722 188.509 961.773 188.605 961.865 188.675C961.956 188.745 962.081 188.785 962.21 188.785H964.651V190.661C964.651 190.76 964.702 190.856 964.794 190.926C964.885 190.996 965.009 191.036 965.139 191.036C965.268 191.036 965.392 190.996 965.484 190.926C965.575 190.856 965.627 190.76 965.627 190.661V188.785H968.068C968.197 188.785 968.321 188.745 968.413 188.675C968.504 188.605 968.556 188.509 968.556 188.41C968.556 188.31 968.504 188.215 968.413 188.144C968.321 188.074 968.197 188.034 968.068 188.034H965.627Z" fill="#4474D7"/>
<path d="M1227.27 151.284L1228.65 150.223C1228.69 150.195 1228.72 150.162 1228.74 150.126C1228.76 150.089 1228.77 150.05 1228.77 150.01C1228.77 149.97 1228.76 149.93 1228.74 149.894C1228.72 149.857 1228.69 149.823 1228.66 149.795C1228.62 149.767 1228.58 149.744 1228.53 149.729C1228.48 149.714 1228.43 149.707 1228.38 149.707C1228.33 149.707 1228.27 149.716 1228.23 149.731C1228.18 149.747 1228.14 149.77 1228.1 149.799L1226.72 150.86L1225.34 149.799C1225.3 149.77 1225.26 149.747 1225.21 149.731C1225.16 149.716 1225.11 149.707 1225.06 149.707C1225.01 149.707 1224.96 149.714 1224.91 149.729C1224.86 149.744 1224.82 149.767 1224.78 149.795C1224.75 149.823 1224.72 149.857 1224.7 149.894C1224.68 149.93 1224.67 149.97 1224.67 150.01C1224.67 150.05 1224.68 150.089 1224.7 150.126C1224.72 150.162 1224.75 150.195 1224.79 150.223L1226.17 151.284L1224.79 152.345C1224.75 152.373 1224.72 152.406 1224.7 152.443C1224.68 152.479 1224.67 152.519 1224.67 152.559C1224.67 152.598 1224.68 152.638 1224.7 152.675C1224.72 152.712 1224.75 152.745 1224.78 152.773C1224.82 152.802 1224.86 152.824 1224.91 152.839C1224.96 152.854 1225.01 152.862 1225.06 152.861C1225.11 152.861 1225.16 152.853 1225.21 152.837C1225.26 152.821 1225.3 152.798 1225.34 152.77L1226.72 151.709L1228.1 152.77C1228.14 152.798 1228.18 152.821 1228.23 152.837C1228.27 152.853 1228.33 152.861 1228.38 152.861C1228.43 152.862 1228.48 152.854 1228.53 152.839C1228.58 152.824 1228.62 152.802 1228.66 152.773C1228.69 152.745 1228.72 152.712 1228.74 152.675C1228.76 152.638 1228.77 152.598 1228.77 152.559C1228.77 152.519 1228.76 152.479 1228.74 152.443C1228.72 152.406 1228.69 152.373 1228.65 152.345L1227.27 151.284V151.284Z" fill="#4474D7"/>
<path fill-rule="evenodd" clip-rule="evenodd" d="M164.884 490.632C214.547 461.5 115.599 434.505 154.877 403.172C264.956 315.36 114.849 310.376 179.896 262.303C281.463 187.24 516.117 382.183 516.117 416.707C516.117 448.954 500.273 468.839 455.24 490.632C410.208 512.425 378.74 527.989 358.044 554.044C337.656 579.712 304.15 612.913 219.924 612.913C189.886 612.913 68.9818 602.658 57.3074 571.891C48.0341 547.452 133.194 509.22 164.884 490.632Z" fill="#9DE2D4"/>
<path d="M117.722 257.457L121.034 256.119L120.401 258.953L123.081 260.96L119.379 261.374L117.722 263.952L116.067 261.374L112.364 260.96L115.044 258.953L114.411 256.119L117.722 257.457Z" fill="#FFB500" fill-opacity="0.38"/>
<path d="M122.78 423.756L125.381 422.704L124.884 424.931L126.99 426.508L124.081 426.833L122.78 428.859L121.479 426.833L118.57 426.508L120.675 424.931L120.178 422.704L122.78 423.756Z" fill="#FFB500" fill-opacity="0.38"/>
<g clip-path="url(#clip7_179_1329)">
<path d="M96.082 297.944C97.5632 297.944 98.7639 298.867 98.7639 300.006C98.7639 301.144 97.5632 302.067 96.082 302.067C94.6007 302.067 93.4 301.144 93.4 300.006C93.4 298.867 94.6007 297.944 96.082 297.944Z" fill="#FFB500" fill-opacity="0.38"/>
</g>
<path d="M97.4453 218.137C99.1381 218.137 100.51 219.192 100.51 220.493C100.51 221.794 99.1381 222.849 97.4453 222.849C95.7524 222.849 94.3802 221.794 94.3802 220.493C94.3802 219.192 95.7524 218.137 97.4453 218.137Z" fill="#FFB500" fill-opacity="0.38"/>
<g clip-path="url(#clip8_179_1329)">
<path d="M37.7233 204.116C39.8394 204.116 41.5547 205.434 41.5547 207.061C41.5547 208.687 39.8394 210.006 37.7233 210.006C35.6072 210.006 33.8919 208.687 33.8919 207.061C33.8919 205.434 35.6072 204.116 37.7233 204.116Z" fill="#FFB500" fill-opacity="0.38"/>
</g>
<path d="M68.0237 270.552C70.1398 270.552 71.8551 271.87 71.8551 273.497C71.8551 275.123 70.1398 276.441 68.0237 276.441C65.9077 276.441 64.1924 275.123 64.1924 273.497C64.1924 271.87 65.9077 270.552 68.0237 270.552Z" fill="#FFB500" fill-opacity="0.38"/>
<g clip-path="url(#clip9_179_1329)">
<path d="M113.585 515.854C115.912 515.854 117.799 517.304 117.799 519.093C117.799 520.882 115.912 522.333 113.585 522.333C111.257 522.333 109.37 520.882 109.37 519.093C109.37 517.304 111.257 515.854 113.585 515.854Z" fill="#FFB500" fill-opacity="0.38"/>
</g>
<g clip-path="url(#clip10_179_1329)">
<path d="M113.125 356.434C113.971 356.434 114.657 356.962 114.657 357.612C114.657 358.263 113.971 358.79 113.125 358.79C112.278 358.79 111.592 358.263 111.592 357.612C111.592 356.962 112.278 356.434 113.125 356.434Z" fill="#FFB500" fill-opacity="0.38"/>
</g>
<g clip-path="url(#clip11_179_1329)">
<path d="M3.21855 330.455C4.6998 330.455 5.90051 331.378 5.90051 332.517C5.90051 333.655 4.6998 334.578 3.21855 334.578C1.7373 334.578 0.536588 333.655 0.536588 332.517C0.536588 331.378 1.7373 330.455 3.21855 330.455Z" fill="#FFB500" fill-opacity="0.38"/>
</g>
<g clip-path="url(#clip12_179_1329)">
<path d="M8.25611 495.073C9.52575 495.073 10.5549 495.864 10.5549 496.84C10.5549 497.816 9.52575 498.607 8.25611 498.607C6.98647 498.607 5.95728 497.816 5.95728 496.84C5.95728 495.864 6.98647 495.073 8.25611 495.073Z" fill="#FFB500" fill-opacity="0.38"/>
</g>
<path d="M81.516 448.703V450.912C81.516 451.029 81.5765 451.142 81.6843 451.224C81.7921 451.307 81.9383 451.354 82.0907 451.354C82.2431 451.354 82.3893 451.307 82.4971 451.224C82.6049 451.142 82.6654 451.029 82.6654 450.912V448.703H85.5389C85.6914 448.703 85.8375 448.657 85.9453 448.574C86.0531 448.491 86.1136 448.379 86.1136 448.262C86.1136 448.145 86.0531 448.032 85.9453 447.949C85.8375 447.867 85.6914 447.82 85.5389 447.82H82.6654V445.611C82.6654 445.494 82.6049 445.382 82.4971 445.299C82.3893 445.216 82.2431 445.17 82.0907 445.17C81.9383 445.17 81.7921 445.216 81.6843 445.299C81.5765 445.382 81.516 445.494 81.516 445.611V447.82H78.6425C78.49 447.82 78.3439 447.867 78.2361 447.949C78.1283 448.032 78.0678 448.145 78.0678 448.262C78.0678 448.379 78.1283 448.491 78.2361 448.574C78.3439 448.657 78.49 448.703 78.6425 448.703H81.516Z" fill="#FFB500" fill-opacity="0.38"/>
<path d="M97.0638 398.046V399.224C97.0638 399.287 97.0961 399.347 97.1536 399.391C97.211 399.435 97.289 399.46 97.3703 399.46C97.4516 399.46 97.5296 399.435 97.587 399.391C97.6445 399.347 97.6768 399.287 97.6768 399.224V398.046H99.2094C99.2907 398.046 99.3686 398.021 99.4261 397.977C99.4836 397.933 99.5159 397.873 99.5159 397.811C99.5159 397.748 99.4836 397.688 99.4261 397.644C99.3686 397.6 99.2907 397.575 99.2094 397.575H97.6768V396.397C97.6768 396.335 97.6445 396.275 97.587 396.231C97.5296 396.186 97.4516 396.162 97.3703 396.162C97.289 396.162 97.211 396.186 97.1536 396.231C97.0961 396.275 97.0638 396.335 97.0638 396.397V397.575H95.5312C95.4499 397.575 95.372 397.6 95.3145 397.644C95.257 397.688 95.2247 397.748 95.2247 397.811C95.2247 397.873 95.257 397.933 95.3145 397.977C95.372 398.021 95.4499 398.046 95.5312 398.046H97.0638Z" fill="#FFB500" fill-opacity="0.38"/>
<g clip-path="url(#clip13_179_1329)">
<path d="M45.0797 372.804C46.3494 372.804 47.3785 373.595 47.3785 374.571C47.3785 375.546 46.3494 376.337 45.0797 376.337C43.8101 376.337 42.7809 375.546 42.7809 374.571C42.7809 373.595 43.8101 372.804 45.0797 372.804Z" fill="#FFB500" fill-opacity="0.38"/>
</g>
<path d="M82.1366 181.142V182.909C82.1366 183.003 82.185 183.093 82.2712 183.159C82.3575 183.225 82.4744 183.262 82.5963 183.262C82.7183 183.262 82.8352 183.225 82.9214 183.159C83.0077 183.093 83.0561 183.003 83.0561 182.909V181.142H85.3549C85.4769 181.142 85.5938 181.105 85.68 181.039C85.7663 180.972 85.8147 180.883 85.8147 180.789C85.8147 180.695 85.7663 180.605 85.68 180.539C85.5938 180.473 85.4769 180.435 85.3549 180.435H83.0561V178.669C83.0561 178.575 83.0077 178.485 82.9214 178.419C82.8352 178.352 82.7183 178.315 82.5963 178.315C82.4744 178.315 82.3575 178.352 82.2712 178.419C82.185 178.485 82.1366 178.575 82.1366 178.669V180.435H79.8378C79.7158 180.435 79.5989 180.473 79.5126 180.539C79.4264 180.605 79.378 180.695 79.378 180.789C79.378 180.883 79.4264 180.972 79.5126 181.039C79.5989 181.105 79.7158 181.142 79.8378 181.142H82.1366Z" fill="#FFB500" fill-opacity="0.38"/>
<g clip-path="url(#clip14_179_1329)">
<path d="M2.98922 268.229L2.31202 268.75C2.29373 268.764 2.27913 268.78 2.26909 268.798C2.25905 268.816 2.25377 268.835 2.25355 268.855C2.25333 268.874 2.25817 268.894 2.2678 268.912C2.27744 268.93 2.29166 268.946 2.30965 268.96C2.32764 268.974 2.34902 268.985 2.37257 268.992C2.39611 269 2.42134 269.003 2.44677 269.003C2.47221 269.003 2.49735 268.999 2.52072 268.991C2.54409 268.984 2.56523 268.972 2.5829 268.958L3.26029 268.438L3.93748 268.958C3.95516 268.972 3.97629 268.984 3.99967 268.991C4.02304 268.999 4.04818 269.003 4.07361 269.003C4.09905 269.003 4.12427 269 4.14782 268.992C4.17136 268.985 4.19275 268.974 4.21074 268.96C4.22872 268.946 4.24295 268.93 4.25258 268.912C4.26221 268.894 4.26706 268.874 4.26684 268.855C4.26662 268.835 4.26133 268.816 4.25129 268.798C4.24125 268.78 4.22666 268.764 4.20836 268.75L3.53117 268.23L4.20836 267.709C4.22666 267.695 4.24125 267.679 4.25129 267.661C4.26133 267.643 4.26662 267.624 4.26684 267.604C4.26706 267.585 4.26221 267.565 4.25258 267.547C4.24295 267.529 4.22872 267.513 4.21074 267.499C4.19275 267.485 4.17136 267.474 4.14782 267.467C4.12427 267.459 4.09905 267.456 4.07361 267.456C4.04818 267.456 4.02304 267.46 3.99967 267.468C3.97629 267.475 3.95516 267.487 3.93748 267.501L3.26029 268.021L2.5829 267.501C2.56523 267.487 2.54409 267.475 2.52072 267.468C2.49735 267.46 2.47221 267.456 2.44677 267.456C2.42134 267.456 2.39611 267.459 2.37257 267.467C2.34902 267.474 2.32764 267.485 2.30965 267.499C2.29166 267.513 2.27744 267.529 2.2678 267.547C2.25817 267.565 2.25333 267.585 2.25355 267.604C2.25377 267.624 2.25905 267.643 2.26909 267.661C2.27913 267.679 2.29373 267.695 2.31202 267.709L2.98922 268.23V268.229Z" fill="#FFB500" fill-opacity="0.38"/>
</g>
<path d="M93.5194 558.03L91.4878 559.592C91.4329 559.633 91.3892 559.682 91.359 559.735C91.3289 559.789 91.3131 559.847 91.3124 559.906C91.3117 559.965 91.3263 560.023 91.3552 560.077C91.3841 560.131 91.4267 560.181 91.4807 560.222C91.5347 560.264 91.5988 560.296 91.6695 560.319C91.7401 560.341 91.8158 560.352 91.8921 560.352C91.9684 560.351 92.0438 560.339 92.1139 560.316C92.184 560.293 92.2474 560.259 92.3005 560.217L94.3326 558.655L96.3642 560.217C96.4172 560.259 96.4806 560.293 96.5508 560.316C96.6209 560.339 96.6963 560.351 96.7726 560.352C96.8489 560.352 96.9246 560.341 96.9952 560.319C97.0658 560.296 97.13 560.264 97.184 560.222C97.2379 560.181 97.2806 560.131 97.3095 560.077C97.3384 560.023 97.3529 559.965 97.3523 559.906C97.3516 559.847 97.3358 559.789 97.3056 559.735C97.2755 559.682 97.2317 559.633 97.1768 559.592L95.1453 558.031L97.1768 556.469C97.2317 556.428 97.2755 556.379 97.3056 556.325C97.3358 556.271 97.3516 556.213 97.3523 556.155C97.3529 556.096 97.3384 556.038 97.3095 555.984C97.2806 555.929 97.2379 555.88 97.184 555.839C97.13 555.797 97.0658 555.764 96.9952 555.742C96.9246 555.72 96.8489 555.709 96.7726 555.709C96.6963 555.71 96.6209 555.722 96.5508 555.745C96.4806 555.768 96.4172 555.802 96.3642 555.844L94.3326 557.406L92.3005 555.844C92.2474 555.802 92.184 555.768 92.1139 555.745C92.0438 555.722 91.9684 555.71 91.8921 555.709C91.8158 555.709 91.7401 555.72 91.6695 555.742C91.5988 555.764 91.5347 555.797 91.4807 555.839C91.4267 555.88 91.3841 555.929 91.3552 555.984C91.3263 556.038 91.3117 556.096 91.3124 556.155C91.3131 556.213 91.3289 556.271 91.359 556.325C91.3892 556.379 91.4329 556.428 91.4878 556.469L93.5194 558.031V558.03Z" fill="#FFB500" fill-opacity="0.38"/>
<path d="M8.541 156.406V158.173C8.541 158.266 8.58944 158.356 8.67566 158.423C8.76188 158.489 8.87882 158.526 9.00076 158.526C9.1227 158.526 9.23964 158.489 9.32586 158.423C9.41209 158.356 9.46053 158.266 9.46053 158.173V156.406H11.7594C11.8813 156.406 11.9982 156.369 12.0845 156.302C12.1707 156.236 12.2191 156.146 12.2191 156.052C12.2191 155.959 12.1707 155.869 12.0845 155.803C11.9982 155.736 11.8813 155.699 11.7594 155.699H9.46053V153.932C9.46053 153.838 9.41209 153.749 9.32586 153.682C9.23964 153.616 9.1227 153.579 9.00076 153.579C8.87882 153.579 8.76188 153.616 8.67566 153.682C8.58944 153.749 8.541 153.838 8.541 153.932V155.699H6.24217C6.12023 155.699 6.00329 155.736 5.91707 155.803C5.83085 155.869 5.78241 155.959 5.78241 156.052C5.78241 156.146 5.83085 156.236 5.91707 156.302C6.00329 156.369 6.12023 156.406 6.24217 156.406H8.541Z" fill="#FFB500" fill-opacity="0.38"/>
<path d="M70.29 519.644V521.117C70.29 521.195 70.3304 521.27 70.4022 521.325C70.4741 521.38 70.5715 521.411 70.6731 521.411C70.7748 521.411 70.8722 521.38 70.9441 521.325C71.0159 521.27 71.0563 521.195 71.0563 521.117V519.644H72.972C73.0736 519.644 73.171 519.613 73.2429 519.558C73.3147 519.503 73.3551 519.428 73.3551 519.35C73.3551 519.272 73.3147 519.197 73.2429 519.142C73.171 519.087 73.0736 519.056 72.972 519.056H71.0563V517.583C71.0563 517.505 71.0159 517.43 70.9441 517.375C70.8722 517.32 70.7748 517.289 70.6731 517.289C70.5715 517.289 70.4741 517.32 70.4022 517.375C70.3304 517.43 70.29 517.505 70.29 517.583V519.056H68.3743C68.2727 519.056 68.1752 519.087 68.1034 519.142C68.0315 519.197 67.9912 519.272 67.9912 519.35C67.9912 519.428 68.0315 519.503 68.1034 519.558C68.1752 519.613 68.2727 519.644 68.3743 519.644H70.29Z" fill="#FFB500" fill-opacity="0.38"/>
<path d="M24.4471 286.967L23.3636 287.801C23.3343 287.822 23.311 287.848 23.2949 287.877C23.2789 287.906 23.2704 287.937 23.2701 287.968C23.2697 287.999 23.2775 288.03 23.2929 288.059C23.3083 288.088 23.331 288.114 23.3598 288.137C23.3886 288.159 23.4228 288.176 23.4605 288.188C23.4982 288.2 23.5385 288.206 23.5792 288.206C23.6199 288.205 23.6601 288.199 23.6975 288.186C23.7349 288.174 23.7687 288.156 23.797 288.134L24.8808 287.301L25.9644 288.134C25.9926 288.156 26.0265 288.174 26.0638 288.186C26.1012 288.199 26.1415 288.205 26.1822 288.206C26.2229 288.206 26.2632 288.2 26.3009 288.188C26.3386 288.176 26.3728 288.159 26.4016 288.137C26.4303 288.114 26.4531 288.088 26.4685 288.059C26.4839 288.03 26.4917 287.999 26.4913 287.968C26.491 287.937 26.4825 287.906 26.4664 287.877C26.4504 287.848 26.427 287.822 26.3978 287.801L25.3142 286.968L26.3978 286.135C26.427 286.113 26.4504 286.087 26.4664 286.058C26.4825 286.029 26.491 285.999 26.4913 285.967C26.4917 285.936 26.4839 285.905 26.4685 285.876C26.4531 285.847 26.4303 285.821 26.4016 285.799C26.3728 285.777 26.3386 285.759 26.3009 285.747C26.2632 285.735 26.2229 285.729 26.1822 285.73C26.1415 285.73 26.1012 285.736 26.0638 285.749C26.0265 285.761 25.9926 285.779 25.9644 285.802L24.8808 286.634L23.797 285.802C23.7687 285.779 23.7349 285.761 23.6975 285.749C23.6601 285.736 23.6199 285.73 23.5792 285.73C23.5385 285.729 23.4982 285.735 23.4605 285.747C23.4228 285.759 23.3886 285.777 23.3598 285.799C23.331 285.821 23.3083 285.847 23.2929 285.876C23.2775 285.905 23.2697 285.936 23.2701 285.967C23.2704 285.999 23.2789 286.029 23.2949 286.058C23.311 286.087 23.3343 286.113 23.3636 286.135L24.4471 286.968V286.967Z" fill="#FFB500" fill-opacity="0.38"/>
<path d="M241.837 711C241.837 631.843 744.82 690.504 744.82 655.873" stroke="#CBD5E1" stroke-dasharray="6 6"/>
<path d="M492.869 711C492.869 665.767 744.82 690.504 744.82 655.873" stroke="#CBD5E1" stroke-dasharray="6 6"/>
<path d="M617.925 711C617.925 667.887 744.82 690.504 744.82 655.873" stroke="#CBD5E1" stroke-dasharray="6 6"/>
<path d="M1246.88 711C1246.88 631.843 743.901 690.504 743.901 655.873" stroke="#CBD5E1" stroke-dasharray="6 6"/>
<path d="M1122.75 711C1125.51 653.046 743.901 690.504 743.901 655.873" stroke="#CBD5E1" stroke-dasharray="6 6"/>
<path d="M995.852 711C995.852 665.767 743.901 690.504 743.901 655.873" stroke="#CBD5E1" stroke-dasharray="6 6"/>
<path d="M744.82 657.993L744.82 711" stroke="#CBD5E1" stroke-dasharray="6 6"/>
<path d="M870.796 711C870.796 667.887 743.901 690.504 743.901 655.873" stroke="#CBD5E1" stroke-dasharray="6 6"/>
<path d="M365.974 711C363.215 653.046 744.82 690.504 744.82 655.873" stroke="#FFB500" stroke-opacity="0.38" stroke-dasharray="6 6"/>
</g>
<defs>
<clipPath id="clip0_179_1329">
<rect width="5.51718" height="4.24056" fill="white" transform="translate(1228.51 285.531)"/>
</clipPath>
<clipPath id="clip1_179_1329">
<rect width="9.37193" height="7.20335" fill="white" transform="translate(1160.04 249.416)"/>
</clipPath>
<clipPath id="clip2_179_1329">
<rect width="5.51718" height="4.24056" fill="white" transform="translate(1131.94 134.284)"/>
</clipPath>
<clipPath id="clip3_179_1329">
<rect width="12.8864" height="9.90461" fill="white" transform="translate(1171.48 175.983)"/>
</clipPath>
<clipPath id="clip4_179_1329">
<rect width="4.68597" height="3.60168" fill="white" transform="translate(1141.55 89.3352)"/>
</clipPath>
<clipPath id="clip5_179_1329">
<rect width="7.02895" height="5.40252" fill="white" transform="translate(1052.26 165.677)"/>
</clipPath>
<clipPath id="clip6_179_1329">
<rect width="7.02895" height="5.40252" fill="white" transform="translate(1234.03 60.0745)"/>
</clipPath>
<clipPath id="clip7_179_1329">
<rect width="6.43671" height="4.94731" fill="white" transform="matrix(-1 0 0 -1 99.3003 302.493)"/>
</clipPath>
<clipPath id="clip8_179_1329">
<rect width="9.1953" height="7.06759" fill="white" transform="matrix(-1 0 0 -1 42.3209 210.614)"/>
</clipPath>
<clipPath id="clip9_179_1329">
<rect width="10.1148" height="7.77435" fill="white" transform="matrix(-1 0 0 -1 118.642 523.001)"/>
</clipPath>
<clipPath id="clip10_179_1329">
<rect width="3.67812" height="2.82704" fill="white" transform="matrix(-1 0 0 -1 114.964 359.033)"/>
</clipPath>
<clipPath id="clip11_179_1329">
<rect width="6.43671" height="4.94731" fill="white" transform="matrix(-1 0 0 -1 6.43689 335.004)"/>
</clipPath>
<clipPath id="clip12_179_1329">
<rect width="5.51718" height="4.24056" fill="white" transform="matrix(-1 0 0 -1 11.0146 498.972)"/>
</clipPath>
<clipPath id="clip13_179_1329">
<rect width="5.51718" height="4.24056" fill="white" transform="matrix(-1 0 0 -1 47.8383 376.702)"/>
</clipPath>
<clipPath id="clip14_179_1329">
<rect width="4.59765" height="3.5338" fill="white" transform="matrix(-1 0 0 -1 5.53979 269.981)"/>
</clipPath>
</defs>
</svg>
