<svg width="1007" height="57" viewBox="0 0 1007 57" fill="none" xmlns="http://www.w3.org/2000/svg">
<path d="M0.837402 55.9998C0.837402 -23.1573 503.82 35.5038 503.82 0.872559" stroke="#CBD5E1" stroke-dasharray="6 6"/>
<path d="M251.869 55.9998C251.869 10.7672 503.82 35.5038 503.82 0.872559" stroke="#CBD5E1" stroke-dasharray="6 6"/>
<path d="M376.925 55.9998C376.925 12.8875 503.82 35.5038 503.82 0.872559" stroke="#CBD5E1" stroke-dasharray="6 6"/>
<path d="M1005.88 55.9998C1005.88 -23.1573 502.901 35.5038 502.901 0.872559" stroke="#CBD5E1" stroke-dasharray="6 6"/>
<path d="M881.747 55.9998C884.506 -1.95448 502.901 35.5038 502.901 0.872559" stroke="#CBD5E1" stroke-dasharray="6 6"/>
<path d="M754.852 55.9998C754.852 10.7672 502.901 35.5038 502.901 0.872559" stroke="#CBD5E1" stroke-dasharray="6 6"/>
<path d="M503.82 2.99292L503.82 55.9999" stroke="#CBD5E1" stroke-dasharray="6 6"/>
<path d="M629.796 55.9998C629.796 12.8875 502.901 35.5038 502.901 0.872559" stroke="#CBD5E1" stroke-dasharray="6 6"/>
<path d="M124.974 55.9998C122.215 -1.95448 503.82 35.5038 503.82 0.872559" stroke="#FFB500" stroke-opacity="0.38" stroke-dasharray="6 6"/>
</svg>
