<svg width="1440" height="684" viewBox="0 0 1440 684" fill="none" xmlns="http://www.w3.org/2000/svg">
<path d="M208 507.373C108.284 488.351 37 531.837 0 602.413V684H1440V3.58104C1397.38 -12.5779 1346.49 29.8525 1326.38 53.0877C1292.55 94.2772 1203.11 173.171 1115.99 159.23C1028.87 145.289 954.268 224.975 927.858 266.56C891.557 322.272 785.577 419.199 652.063 361.217C528 307.339 441.5 391.416 395.823 433.695C358.736 466.699 313.484 527.496 208 507.373Z" fill="#4474D7" fill-opacity="0.43"/>
<path d="M208 538.361C108.284 522.675 37 558.532 0 616.727V684H1440V122.953C1397.38 109.629 1346.49 144.615 1326.38 163.774C1292.55 197.737 1203.11 262.79 1115.99 251.295C1028.87 239.8 954.268 305.505 927.858 339.795C891.557 385.733 785.577 465.655 652.063 417.845C528 373.42 441.5 442.747 395.823 477.608C358.736 504.822 313.484 554.953 208 538.361Z" fill="#4474D7" fill-opacity="0.4"/>
</svg>
