<svg width="19" height="19" viewBox="0 0 19 19" fill="none" xmlns="http://www.w3.org/2000/svg">
<path d="M9.49992 1.58325C13.8723 1.58325 17.4166 5.12754 17.4166 9.49992C17.4166 13.8723 13.8723 17.4166 9.49992 17.4166C5.12754 17.4166 1.58325 13.8723 1.58325 9.49992C1.58325 5.12754 5.12754 1.58325 9.49992 1.58325ZM9.49992 4.74992C9.28996 4.74992 9.08859 4.83333 8.94013 4.98179C8.79166 5.13026 8.70825 5.33162 8.70825 5.54158V9.49992C8.7083 9.70986 8.79173 9.91119 8.94021 10.0596L11.3152 12.4346C11.4645 12.5788 11.6645 12.6586 11.8721 12.6568C12.0796 12.655 12.2782 12.5718 12.425 12.425C12.5718 12.2782 12.655 12.0796 12.6568 11.8721C12.6586 11.6645 12.5788 11.4645 12.4346 11.3152L10.2916 9.17217V5.54158C10.2916 5.33162 10.2082 5.13026 10.0597 4.98179C9.91124 4.83333 9.70988 4.74992 9.49992 4.74992Z" fill="#828282"/>
</svg>
