<svg width="16" height="15" viewBox="0 0 16 15" fill="none" xmlns="http://www.w3.org/2000/svg">
<path d="M11.0797 9.623L10.6782 10.0227C10.6782 10.0227 9.7226 10.9721 7.11523 8.37976C4.50785 5.78738 5.46345 4.83796 5.46345 4.83796L5.7158 4.58561C6.33963 3.96619 6.39875 2.97089 5.85433 2.24382L4.74256 0.758811C4.06844 -0.141196 2.76695 -0.260314 1.99489 0.507339L0.609584 1.88382C0.227522 2.265 -0.0283626 2.75736 0.00252002 3.30442C0.0819324 4.70473 0.715467 7.71622 4.24844 11.2298C7.99582 14.9551 11.512 15.1033 12.9494 14.9692C13.4047 14.9269 13.8 14.6957 14.1185 14.378L15.3715 13.1321C16.2185 12.2913 15.9803 10.8486 14.8968 10.2601L13.2115 9.34329C12.5003 8.9577 11.6356 9.07064 11.0797 9.623Z" fill="#828282"/>
</svg>
