<svg width="17" height="17" viewBox="0 0 17 17" fill="none" xmlns="http://www.w3.org/2000/svg">
<path d="M8.50016 0.583252C12.8725 0.583252 16.4168 4.12754 16.4168 8.49992C16.4168 12.8723 12.8725 16.4166 8.50016 16.4166C4.12779 16.4166 0.583496 12.8723 0.583496 8.49992C0.583496 4.12754 4.12779 0.583252 8.50016 0.583252ZM8.50016 3.74992C8.2902 3.74992 8.08884 3.83333 7.94037 3.98179C7.7919 4.13026 7.7085 4.33162 7.7085 4.54158V8.49992C7.70854 8.70986 7.79198 8.91119 7.94045 9.05963L10.3155 11.4346C10.4648 11.5788 10.6647 11.6586 10.8723 11.6568C11.0799 11.655 11.2784 11.5718 11.4252 11.425C11.572 11.2782 11.6553 11.0796 11.6571 10.8721C11.6589 10.6645 11.5791 10.4645 11.4349 10.3152L9.29183 8.17217V4.54158C9.29183 4.33162 9.20842 4.13026 9.05995 3.98179C8.91149 3.83333 8.71012 3.74992 8.50016 3.74992Z" fill="white"/>
</svg>
